# Blender 4.2.14 LTS
# www.blender.org
mtllib Contact.mtl
o Contact
v -0.200000 0.000000 0.100000
v -0.200000 0.500000 0.100000
v 0.200000 0.100000 0.100000
v -0.100000 0.100000 -0.000000
v 0.300000 0.100000 0.100000
v 0.300000 0.500000 0.100000
v -0.100000 0.400000 0.100000
v 0.200000 0.400000 0.100000
v -0.100000 0.400000 -0.000000
v 0.200000 0.100000 -0.000000
v 0.200000 0.400000 -0.000000
v -0.200000 0.500000 -0.100000
v 0.300000 -0.000000 -0.100000
v 0.300000 0.500000 -0.100000
v 0.300000 0.000000 0.100000
v -0.200000 -0.000000 -0.100000
v -0.100000 0.100000 0.100000
vn -0.0000 -0.0000 1.0000
vn -0.0000 -0.0000 -1.0000
vn -0.0000 1.0000 -0.0000
vn -0.0000 -1.0000 -0.0000
vn -1.0000 -0.0000 -0.0000
vn 1.0000 -0.0000 -0.0000
vt 0.416667 0.083333
vt 0.333333 0.083333
vt 0.000000 0.000000
vt 0.416667 0.416667
vt 0.000000 0.416667
vt 0.333333 0.333333
vt 0.666667 0.666667
vt 0.416667 0.916667
vt 0.416667 0.666667
vt 0.000000 0.833333
vt 0.916667 0.833333
vt 0.666667 0.916667
vt 0.916667 0.916667
vt 0.416667 0.500000
vt 0.833333 0.333333
vt 0.833333 0.500000
vt 0.833333 0.166667
vt 0.416667 -0.000000
vt 0.416667 0.166667
vt 0.500000 0.333333
vt 0.416667 0.333333
vt 0.916667 0.666667
vt 0.666667 0.750000
vt 0.250000 0.916667
vt 0.250000 0.833333
vt 0.916667 0.750000
vt 0.083333 0.083333
vt 0.083333 0.333333
vt 0.416667 0.833333
vt 0.666667 0.833333
vt 0.833333 -0.000000
vt 0.833333 0.666667
vt -0.000000 0.916667
s 0
usemtl Contact_Material
f 5/1/1 3/2/1 1/3/1
f 6/4/1 2/5/1 8/6/1
f 10/7/1 9/8/1 4/9/1
f 12/10/2 13/4/2 16/5/2
f 10/11/3 17/12/3 3/13/3
f 1/14/4 13/15/4 15/16/4
f 2/17/5 16/18/5 1/19/5
f 2/9/3 14/16/3 12/14/3
f 14/17/6 5/20/6 15/21/6
f 9/22/6 17/23/6 4/7/6
f 10/10/5 8/24/5 11/25/5
f 8/11/4 9/23/4 11/26/4
f 1/3/1 15/18/1 5/1/1
f 3/2/1 17/27/1 1/3/1
f 2/5/1 1/3/1 17/27/1
f 2/5/1 17/27/1 7/28/1
f 3/2/1 5/1/1 6/4/1
f 2/5/1 7/28/1 8/6/1
f 8/6/1 3/2/1 6/4/1
f 10/7/1 11/12/1 9/8/1
f 12/10/2 14/29/2 13/4/2
f 10/11/3 4/30/3 17/12/3
f 1/14/4 16/21/4 13/15/4
f 2/17/5 12/31/5 16/18/5
f 2/9/3 6/32/3 14/16/3
f 15/21/6 13/19/6 14/17/6
f 14/17/6 6/15/6 5/20/6
f 9/22/6 7/26/6 17/23/6
f 10/10/5 3/33/5 8/24/5
f 8/11/4 7/30/4 9/23/4
