# Blender 4.2.14 LTS
# www.blender.org
mtllib Drawing_Board.mtl
o Drawing_Board
v -1.000000 0.000000 0.100000
v 0.900000 0.100000 -0.000000
v -0.900000 0.100000 0.100000
v -0.900000 1.500000 0.100000
v 1.000000 1.600000 0.100000
v 1.000000 1.600000 -0.100000
v 1.000000 0.000000 0.100000
v -0.900000 0.100000 -0.000000
v -0.900000 1.500000 -0.000000
v -1.000000 1.600000 -0.100000
v 1.000000 -0.000000 -0.100000
v -1.000000 -0.000000 -0.100000
v 0.900000 1.500000 0.100000
v 0.900000 1.500000 -0.000000
v 0.900000 0.100000 0.100000
v -1.000000 1.600000 0.100000
vn -0.0000 1.0000 -0.0000
vn -0.0000 -1.0000 -0.0000
vn -0.0000 -0.0000 1.0000
vn 1.0000 -0.0000 -0.0000
vn -1.0000 -0.0000 -0.0000
vn -0.0000 -0.0000 -1.0000
vt 0.923077 0.923077
vt 0.461538 0.948718
vt 0.923077 0.948718
vt 0.000000 0.923077
vt 0.461538 0.923077
vt 0.000000 0.000000
vt 0.025641 0.025641
vt 0.025641 0.384615
vt 0.512821 0.512821
vt 0.871795 0.487179
vt 0.871795 0.512821
vt 0.512821 0.410256
vt 0.923077 0.358974
vt 0.512821 0.358974
vt 0.000000 0.410256
vt 0.512821 0.820513
vt 0.512821 0.461538
vt 0.512821 0.487179
vt 0.512821 0.871795
vt 0.000000 0.820513
vt 0.974359 0.000000
vt 0.974359 0.358974
vt 0.487179 0.384615
vt 0.512821 0.000000
vt 0.512821 0.923077
vt 0.923077 0.410256
vt 0.923077 0.461538
vt 0.000000 0.948718
vt 0.487179 0.025641
vt 0.871795 0.461538
vt 0.000000 0.871795
s 0
usemtl Drawing_Board_Material
f 2/1/1 3/2/1 15/3/1
f 13/2/2 9/4/2 14/5/2
f 1/6/3 3/7/3 4/8/3
f 3/9/4 9/10/4 4/11/4
f 1/12/5 10/13/5 12/14/5
f 12/15/6 6/16/6 11/12/6
f 13/10/5 2/17/5 15/18/5
f 7/19/2 12/20/2 11/16/2
f 9/14/3 2/21/3 14/22/3
f 13/23/3 7/24/3 5/12/3
f 6/19/1 16/4/1 5/25/1
f 7/17/4 6/26/4 5/27/4
f 2/1/1 8/5/1 3/2/1
f 13/2/2 4/28/2 9/4/2
f 4/8/3 16/15/3 1/6/3
f 1/6/3 15/29/3 3/7/3
f 3/9/4 8/18/4 9/10/4
f 1/12/5 16/26/5 10/13/5
f 12/15/6 10/20/6 6/16/6
f 13/10/5 14/30/5 2/17/5
f 7/19/2 1/31/2 12/20/2
f 9/14/3 8/24/3 2/21/3
f 15/29/3 1/6/3 7/24/3
f 5/12/3 16/15/3 4/8/3
f 13/23/3 15/29/3 7/24/3
f 5/12/3 4/8/3 13/23/3
f 6/19/1 10/31/1 16/4/1
f 7/17/4 11/12/4 6/26/4
