# Blender 4.2.14 LTS
# www.blender.org
mtllib Floor2.mtl
o Floor2
v -2.800000 -0.000000 -1.600000
v 2.800000 0.200000 1.600000
v -2.800000 0.200000 1.600000
v -2.800000 0.200000 -1.600000
v 2.800000 -0.000000 -1.600000
v -2.800000 0.000000 1.600000
v 2.800000 0.000000 1.600000
v 2.800000 0.200000 -1.600000
vn 1.0000 -0.0000 -0.0000
vn -0.0000 -0.0000 1.0000
vn -0.0000 -0.0000 -1.0000
vn -0.0000 1.0000 -0.0000
vn -0.0000 -1.0000 -0.0000
vn -1.0000 -0.0000 -0.0000
vt 0.869565 0.000000
vt 0.840580 0.463768
vt 0.840580 0.000000
vt 0.000000 0.927536
vt 0.811594 0.956522
vt 0.000000 0.956522
vt 0.000000 0.985507
vt 0.811594 0.927536
vt 0.000000 0.463768
vt 0.811594 0.000000
vt 0.811594 0.463768
vt 0.869565 0.463768
vt 0.811594 0.985507
vt 0.000000 0.000000
s 0
usemtl Floor2_Material
f 8/1/1 7/2/1 5/3/1
f 6/4/2 2/5/2 3/6/2
f 4/7/3 5/5/3 1/6/3
f 2/8/4 4/9/4 3/4/4
f 6/9/5 5/10/5 7/11/5
f 3/2/6 1/10/6 6/11/6
f 8/1/1 2/12/1 7/2/1
f 6/4/2 7/8/2 2/5/2
f 4/7/3 8/13/3 5/5/3
f 2/8/4 8/11/4 4/9/4
f 6/9/5 1/14/5 5/10/5
f 3/2/6 4/3/6 1/10/6
