# Blender 4.2.14 LTS
# www.blender.org
mtllib Plate.mtl
o Plate
v -0.400000 0.200000 0.300000
v -0.300000 0.000000 0.300000
v -0.300000 0.000000 0.200000
v -0.300000 0.100000 -0.400000
v -0.300000 0.200000 -0.400000
v -0.200000 0.100000 -0.300000
v -0.200000 0.100000 -0.400000
v 0.200000 0.100000 -0.200000
v 0.200000 0.100000 -0.300000
v 0.200000 0.200000 0.300000
v -0.300000 0.200000 -0.200000
v -0.200000 0.100000 0.300000
v -0.200000 0.100000 0.200000
v -0.200000 0.200000 0.200000
v 0.300000 -0.000000 -0.300000
v 0.300000 0.100000 0.400000
v 0.300000 0.100000 0.300000
v 0.300000 0.100000 0.200000
v 0.400000 0.000000 0.200000
v 0.400000 0.200000 0.300000
v 0.400000 0.200000 -0.300000
v -0.300000 0.100000 0.400000
v -0.200000 0.100000 0.400000
v 0.200000 0.000000 0.400000
v -0.300000 0.200000 0.300000
v -0.200000 0.000000 0.300000
v 0.200000 0.000000 0.300000
v 0.300000 0.000000 0.300000
v 0.400000 0.100000 0.200000
v -0.300000 0.100000 -0.200000
v -0.200000 0.100000 -0.200000
v -0.200000 0.200000 -0.200000
v 0.200000 0.200000 -0.200000
v 0.300000 0.100000 -0.200000
v 0.200000 0.100000 0.300000
v 0.200000 0.100000 0.200000
v 0.300000 0.200000 0.200000
v -0.400000 -0.000000 -0.200000
v -0.400000 0.100000 -0.200000
v 0.400000 -0.000000 -0.200000
v 0.400000 0.100000 -0.200000
v -0.400000 0.100000 -0.300000
v -0.400000 0.200000 -0.300000
v -0.300000 0.100000 -0.300000
v -0.300000 0.200000 -0.300000
v 0.300000 0.200000 -0.300000
v 0.200000 -0.000000 -0.400000
v -0.200000 0.000000 0.400000
v -0.400000 0.000000 0.200000
v 0.300000 0.000000 0.200000
v -0.300000 -0.000000 -0.200000
v 0.300000 -0.000000 -0.200000
v -0.300000 -0.000000 -0.300000
v -0.200000 -0.000000 -0.300000
v 0.200000 -0.000000 -0.300000
v -0.200000 -0.000000 -0.400000
v 0.200000 0.100000 0.400000
v -0.400000 0.100000 0.300000
v -0.300000 0.100000 0.300000
v 0.400000 0.100000 0.300000
v -0.400000 0.100000 0.200000
v -0.300000 0.100000 0.200000
v 0.300000 0.100000 -0.300000
v 0.400000 0.100000 -0.300000
v 0.200000 0.100000 -0.400000
v 0.300000 0.100000 -0.400000
v -0.300000 0.200000 0.400000
v 0.300000 0.200000 0.400000
v -0.200000 0.200000 0.300000
v 0.300000 0.200000 0.300000
v -0.300000 0.200000 0.200000
v 0.200000 0.200000 0.200000
v 0.300000 0.200000 -0.200000
v -0.200000 0.200000 -0.300000
v 0.200000 0.200000 -0.300000
v 0.300000 0.200000 -0.400000
vn -0.0000 -1.0000 -0.0000
vn 1.0000 -0.0000 -0.0000
vn -0.0000 -0.0000 -1.0000
vn -1.0000 -0.0000 -0.0000
vn -0.0000 -0.0000 1.0000
vn -0.0000 1.0000 -0.0000
vt 0.888889 0.166667
vt 0.833333 0.111111
vt 0.888889 0.111111
vt 0.888889 0.833333
vt 0.833333 0.777778
vt 0.888889 0.777778
vt 0.777778 0.333333
vt 0.722222 0.555556
vt 0.722222 0.333333
vt 0.833333 0.833333
vt 0.777778 0.777778
vt 0.777778 0.833333
vt 0.666667 0.333333
vt 0.000000 0.888889
vt 0.055556 0.944444
vt 0.055556 0.888889
vt 0.833333 0.888889
vt 0.833333 0.166667
vt 0.888889 0.222222
vt 0.833333 0.722222
vt 0.277778 0.944444
vt 0.333333 0.888889
vt 0.333333 0.944444
vt 0.944444 0.000000
vt 0.888889 0.055556
vt 0.888889 0.000000
vt 0.777778 0.277778
vt 0.833333 0.333333
vt 0.833333 0.277778
vt 0.388889 0.777778
vt 0.333333 0.833333
vt 0.388889 0.833333
vt 0.611111 0.388889
vt 0.611111 0.611111
vt 0.833333 0.055556
vt 0.388889 0.944444
vt 0.555556 0.333333
vt 0.500000 0.388889
vt 0.500000 0.611111
vt 0.111111 0.944444
vt 0.166667 0.888889
vt 0.166667 0.944444
vt 0.944444 0.277778
vt 0.944444 0.222222
vt 0.777778 0.222222
vt 0.833333 0.222222
vt 0.777778 0.166667
vt 0.833333 0.388889
vt 0.777778 0.444444
vt 0.777778 0.388889
vt 0.888889 0.888889
vt 0.944444 0.055556
vt 0.944444 0.111111
vt 0.888889 0.277778
vt 0.666667 0.666667
vt 0.888889 0.611111
vt 0.666667 0.611111
vt 0.944444 0.166667
vt 0.666667 0.555556
vt 0.222222 0.944444
vt 0.500000 0.722222
vt 0.722222 0.722222
vt 0.000000 0.833333
vt 0.055556 0.833333
vt 0.055556 0.777778
vt 0.833333 0.500000
vt 0.888889 0.444444
vt 0.888889 0.500000
vt 0.888889 0.722222
vt 0.833333 0.666667
vt 0.833333 0.000000
vt 0.833333 0.444444
vt 0.888889 0.388889
vt 0.944444 0.388889
vt 0.888889 0.333333
vt 0.944444 0.333333
vt 0.722222 0.833333
vt 0.500000 0.833333
vt 0.444444 0.888889
vt 0.222222 0.888889
vt 0.277778 0.888889
vt 0.777778 0.722222
vt 0.333333 0.388889
vt 0.055556 0.333333
vt 0.055556 0.111111
vt 0.777778 0.500000
vt 0.777778 0.111111
vt 0.777778 0.055556
vt 0.111111 0.888889
vt 0.777778 0.000000
vt 0.722222 0.055556
vt 0.500000 0.055556
vt 0.500000 0.277778
vt 0.777778 0.555556
vt 0.000000 0.944444
vt 0.777778 0.888889
vt 0.444444 0.833333
vt 0.444444 0.500000
vt 0.388889 0.555556
vt 0.333333 0.777778
vt 0.388889 0.888889
vt 0.611111 0.333333
vt 0.611111 0.666667
vt 0.555556 0.611111
vt 0.555556 0.388889
vt 0.500000 0.666667
vt 0.555556 0.666667
vt 0.500000 0.333333
vt 0.444444 0.388889
vt 0.444444 0.611111
vt 0.888889 0.666667
vt 0.888889 0.555556
vt 0.444444 0.777778
vt 0.444444 0.722222
vt 0.722222 0.666667
vt 0.055556 0.555556
vt 0.111111 0.555556
vt 0.111111 0.500000
vt 0.333333 0.500000
vt 0.333333 0.555556
vt 0.388889 0.500000
vt 0.388889 0.444444
vt 0.055556 0.444444
vt 0.055556 0.500000
vt 0.000000 0.500000
vt 0.111111 0.833333
vt 0.111111 0.777778
vt 0.722222 0.777778
vt 0.500000 0.777778
vt 0.777778 0.666667
vt 0.111111 0.000000
vt 0.333333 0.000000
vt 0.333333 0.055556
vt 0.388889 0.055556
vt 0.388889 0.111111
vt 0.444444 0.111111
vt 0.444444 0.333333
vt 0.388889 0.333333
vt 0.388889 0.388889
vt 0.055556 0.055556
vt 0.111111 0.055556
vt 0.333333 0.444444
vt 0.111111 0.444444
vt 0.111111 0.388889
vt 0.055556 0.388889
vt 0.000000 0.333333
vt 0.000000 0.111111
vt 0.722222 0.277778
vt 0.722222 0.000000
vt 0.500000 0.000000
vt 0.444444 0.055556
vt 0.444444 0.277778
s 0
usemtl Plate_Material
f 63/1/1 65/2/1 66/3/1
f 30/4/1 42/5/1 44/6/1
f 11/7/2 62/8/2 30/9/2
f 14/10/3 62/11/3 71/12/3
f 34/13/4 37/8/4 73/9/4
f 56/14/4 6/15/4 7/16/4
f 6/17/1 4/12/1 7/10/1
f 26/18/4 23/19/4 12/1/4
f 11/11/5 31/20/5 32/5/5
f 18/21/5 19/22/5 29/23/5
f 65/24/2 55/25/2 47/26/2
f 4/27/4 45/28/4 5/29/4
f 37/30/6 10/31/6 70/32/6
f 41/33/2 21/13/2 29/34/2
f 23/3/1 59/35/1 12/25/1
f 41/36/3 52/22/3 34/23/3
f 43/37/4 39/38/4 61/39/4
f 61/40/5 3/41/5 62/42/5
f 3/19/4 59/43/4 62/44/4
f 16/29/1 35/45/1 17/46/1
f 33/47/5 34/2/5 73/18/5
f 74/48/2 31/49/2 6/50/2
f 53/10/4 30/51/4 44/4/4
f 59/3/5 26/52/5 12/53/5
f 14/54/2 12/28/2 13/29/2
f 69/55/3 35/56/3 12/57/3
f 6/58/3 53/3/3 44/1/3
f 21/6/3 63/20/3 46/5/3
f 6/59/5 75/56/5 74/57/5
f 30/60/3 38/41/3 39/42/3
f 23/61/5 57/62/5 68/11/5
f 1/63/6 25/64/6 71/65/6
f 70/66/5 60/67/5 20/68/5
f 63/69/3 55/70/3 9/20/3
f 45/25/3 42/71/3 43/35/3
f 35/72/5 28/73/5 17/67/5
f 60/74/1 18/75/1 29/76/1
f 65/77/3 7/78/3 5/79/3
f 59/21/1 61/80/1 62/81/1
f 41/44/1 63/1/1 64/58/1
f 1/82/5 59/70/5 25/20/5
f 27/83/1 3/84/1 51/85/1
f 76/72/2 63/86/2 66/49/2
f 70/35/2 16/87/2 17/88/2
f 63/89/2 52/15/2 15/16/2
f 18/43/2 28/75/2 50/54/2
f 37/46/3 36/47/3 72/45/3
f 36/46/4 10/54/4 72/19/4
f 35/75/2 24/48/2 27/28/2
f 59/90/4 67/35/4 25/71/4
f 8/91/6 31/92/6 13/93/6
f 9/7/4 33/48/4 75/28/4
f 63/1/1 9/18/1 65/2/1
f 30/4/1 39/10/1 42/5/1
f 11/7/2 71/94/2 62/8/2
f 14/10/3 13/5/3 62/11/3
f 34/13/4 18/59/4 37/8/4
f 56/14/4 54/95/4 6/15/4
f 6/17/1 44/96/1 4/12/1
f 26/18/4 48/46/4 23/19/4
f 11/11/5 30/82/5 31/20/5
f 18/21/5 50/81/5 19/22/5
f 65/24/2 9/52/2 55/25/2
f 4/27/4 44/7/4 45/28/4
f 20/97/6 21/98/6 73/99/6
f 37/30/6 72/100/6 10/31/6
f 20/97/6 73/99/6 37/30/6
f 10/31/6 68/101/6 70/32/6
f 70/32/6 20/97/6 37/30/6
f 41/33/2 64/102/2 21/13/2
f 21/13/2 20/55/2 60/103/2
f 29/34/2 19/104/2 40/105/2
f 21/13/2 60/103/2 29/34/2
f 29/34/2 40/105/2 41/33/2
f 23/3/1 22/2/1 59/35/1
f 41/36/3 40/101/3 52/22/3
f 58/106/4 1/107/4 43/37/4
f 43/37/4 42/108/4 39/38/4
f 39/38/4 38/109/4 49/110/4
f 61/39/4 58/106/4 43/37/4
f 39/38/4 49/110/4 61/39/4
f 61/40/5 49/89/5 3/41/5
f 3/19/4 2/54/4 59/43/4
f 16/29/1 57/27/1 35/45/1
f 33/47/5 8/87/5 34/2/5
f 74/48/2 32/72/2 31/49/2
f 53/10/4 51/17/4 30/51/4
f 59/3/5 2/25/5 26/52/5
f 14/54/2 69/75/2 12/28/2
f 69/55/3 10/111/3 35/56/3
f 6/58/3 54/53/3 53/3/3
f 21/6/3 64/69/3 63/20/3
f 6/59/5 9/112/5 75/56/5
f 30/60/3 51/80/3 38/41/3
f 68/11/5 67/113/5 22/114/5
f 23/61/5 48/106/5 24/115/5
f 68/11/5 22/114/5 23/61/5
f 57/62/5 16/82/5 68/11/5
f 23/61/5 24/115/5 57/62/5
f 11/116/6 32/117/6 74/118/6
f 75/119/6 33/120/6 73/99/6
f 73/99/6 21/98/6 46/121/6
f 46/121/6 76/122/6 5/123/6
f 45/124/6 43/125/6 1/63/6
f 75/119/6 73/99/6 46/121/6
f 75/119/6 46/121/6 5/123/6
f 74/118/6 75/119/6 5/123/6
f 74/118/6 5/123/6 45/124/6
f 25/64/6 67/16/6 68/101/6
f 68/101/6 10/31/6 69/126/6
f 69/126/6 14/127/6 71/65/6
f 11/116/6 74/118/6 45/124/6
f 11/116/6 45/124/6 1/63/6
f 25/64/6 68/101/6 69/126/6
f 71/65/6 11/116/6 1/63/6
f 25/64/6 69/126/6 71/65/6
f 70/66/5 17/72/5 60/67/5
f 63/69/3 15/111/3 55/70/3
f 45/25/3 44/26/3 42/71/3
f 35/72/5 27/48/5 28/73/5
f 60/74/1 17/73/1 18/75/1
f 5/79/3 76/96/3 66/12/3
f 65/77/3 47/128/3 56/129/3
f 5/79/3 66/12/3 65/77/3
f 7/78/3 4/97/3 5/79/3
f 65/77/3 56/129/3 7/78/3
f 59/21/1 58/60/1 61/80/1
f 41/44/1 34/19/1 63/1/1
f 1/82/5 58/130/5 59/70/5
f 56/131/1 47/132/1 55/133/1
f 55/133/1 15/134/1 52/135/1
f 52/135/1 40/136/1 19/137/1
f 50/138/1 28/139/1 27/83/1
f 52/135/1 19/137/1 50/138/1
f 56/131/1 55/133/1 52/135/1
f 51/85/1 53/140/1 54/141/1
f 54/141/1 56/131/1 52/135/1
f 52/135/1 50/138/1 27/83/1
f 27/83/1 24/142/1 48/143/1
f 26/144/1 2/145/1 3/84/1
f 27/83/1 48/143/1 26/144/1
f 54/141/1 52/135/1 27/83/1
f 49/146/1 38/147/1 51/85/1
f 51/85/1 54/141/1 27/83/1
f 27/83/1 26/144/1 3/84/1
f 3/84/1 49/146/1 51/85/1
f 76/72/2 46/66/2 63/86/2
f 70/35/2 68/2/2 16/87/2
f 63/89/2 34/40/2 52/15/2
f 18/43/2 17/76/2 28/75/2
f 37/46/3 18/18/3 36/47/3
f 36/46/4 35/29/4 10/54/4
f 35/75/2 57/73/2 24/48/2
f 59/90/4 22/88/4 67/35/4
f 12/108/6 35/9/6 36/148/6
f 36/148/6 18/27/6 34/88/6
f 8/91/6 9/149/6 6/150/6
f 36/148/6 34/88/6 8/91/6
f 13/93/6 12/108/6 36/148/6
f 30/151/6 62/152/6 13/93/6
f 8/91/6 6/150/6 31/92/6
f 31/92/6 30/151/6 13/93/6
f 13/93/6 36/148/6 8/91/6
f 9/7/4 8/50/4 33/48/4
