# Blender 4.2.14 LTS
# www.blender.org
mtllib Radiator.mtl
o Radiator
v -0.800000 0.000000 0.100000
v -0.800000 0.500000 -0.000000
v -0.800000 1.400000 -0.000000
v -0.800000 1.500000 -0.100000
v -0.700000 0.500000 -0.100000
v -0.700000 0.600000 0.100000
v -0.700000 1.500000 -0.000000
v -0.700000 1.500000 -0.100000
v -0.700000 1.600000 -0.200000
v -0.500000 0.500000 -0.100000
v -0.300000 0.500000 -0.000000
v -0.300000 1.500000 -0.200000
v -0.100000 0.500000 -0.000000
v 0.200000 1.500000 -0.200000
v 0.400000 0.500000 -0.000000
v 0.400000 0.500000 -0.200000
v 0.400000 1.500000 -0.200000
v 0.600000 0.500000 -0.100000
v 0.600000 1.200000 -0.100000
v 0.700000 0.000000 0.100000
v -0.700000 0.000000 0.000000
v -0.700000 0.400000 0.100000
v -0.600000 1.300000 -0.100000
v -0.400000 0.500000 -0.200000
v -0.200000 1.500000 -0.000000
v -0.200000 1.500000 -0.200000
v 0.100000 0.500000 -0.200000
v 0.100000 1.500000 -0.000000
v 0.300000 0.500000 -0.000000
v 0.300000 0.500000 -0.200000
v 0.500000 0.500000 -0.100000
v 0.500000 0.500000 -0.200000
v 0.700000 1.600000 -0.200000
v 0.800000 0.500000 -0.200000
v 0.800000 0.600000 -0.000000
v -0.800000 0.600000 0.100000
v -0.700000 0.000000 0.100000
v 0.700000 1.600000 0.100000
v 0.800000 0.000000 0.100000
v -0.800000 1.500000 -0.000000
v 0.800000 1.400000 -0.000000
v 0.800000 1.500000 -0.000000
v -0.700000 1.400000 -0.100000
v -0.700000 0.600000 -0.000000
v -0.700000 1.400000 -0.000000
v -0.400000 1.500000 -0.000000
v -0.200000 0.500000 -0.000000
v -0.100000 1.500000 -0.000000
v 0.300000 1.500000 -0.000000
v 0.400000 1.500000 -0.000000
v 0.600000 0.500000 -0.000000
v 0.700000 1.400000 -0.000000
v 0.800000 0.400000 -0.000000
v -0.800000 1.400000 -0.100000
v -0.600000 0.500000 -0.100000
v -0.500000 1.500000 -0.100000
v 0.500000 1.500000 -0.100000
v 0.700000 1.400000 -0.100000
v 0.700000 1.500000 -0.100000
v 0.800000 1.400000 -0.100000
v 0.800000 1.500000 -0.100000
v -0.800000 0.500000 -0.200000
v -0.500000 0.500000 -0.200000
v -0.500000 1.500000 -0.200000
v -0.400000 1.500000 -0.200000
v -0.300000 0.500000 -0.200000
v 0.100000 1.500000 -0.200000
v 0.200000 0.500000 -0.200000
v 0.300000 1.500000 -0.200000
v 0.500000 1.500000 -0.200000
v 0.600000 0.500000 -0.200000
v 0.700000 0.500000 -0.200000
v 0.800000 0.400000 -0.200000
v -0.800000 0.000000 0.000000
v 0.700000 0.000000 0.000000
v 0.800000 0.000000 0.000000
v 0.700000 0.400000 0.100000
v -0.800000 0.400000 -0.000000
v -0.700000 0.400000 -0.000000
v 0.700000 0.400000 -0.000000
v -0.800000 0.400000 -0.200000
v -0.600000 1.400000 -0.000000
v 0.600000 1.400000 -0.000000
v -0.600000 1.400000 -0.100000
v 0.600000 1.400000 -0.100000
v -0.300000 1.500000 -0.000000
v 0.200000 1.500000 -0.000000
v -0.600000 1.500000 -0.100000
v 0.600000 1.500000 -0.100000
v -0.600000 1.500000 -0.200000
v -0.100000 1.500000 -0.200000
v 0.600000 1.500000 -0.200000
v -0.600000 0.500000 -0.000000
v -0.400000 0.500000 -0.000000
v 0.100000 0.500000 -0.000000
v 0.200000 0.500000 -0.000000
v 0.800000 0.500000 -0.000000
v 0.700000 0.500000 -0.100000
v -0.700000 0.500000 -0.200000
v -0.600000 0.500000 -0.200000
v -0.200000 0.500000 -0.200000
v -0.100000 0.500000 -0.200000
v 0.700000 0.600000 0.100000
v 0.800000 0.600000 0.100000
v -0.800000 0.600000 -0.000000
v 0.700000 0.600000 -0.000000
v 0.700000 1.500000 -0.000000
v -0.700000 1.600000 0.100000
vn -0.0000 -0.0000 -1.0000
vn -0.0000 -1.0000 -0.0000
vn 1.0000 -0.0000 -0.0000
vn -0.0000 1.0000 -0.0000
vn -0.0000 -0.0000 1.0000
vn -1.0000 -0.0000 -0.0000
vt 0.941176 0.205882
vt 0.911765 0.176471
vt 0.911765 0.205882
vt 0.882353 0.205882
vt 0.852941 0.147059
vt 0.882353 0.147059
vt 0.823529 0.500000
vt 0.529412 0.441176
vt 0.823529 0.441176
vt 0.882353 0.558824
vt 0.911765 0.852941
vt 0.911765 0.558824
vt 0.911765 0.147059
vt 0.941176 0.088235
vt 0.911765 0.088235
vt 0.176471 0.500000
vt 0.147059 0.794118
vt 0.176471 0.794118
vt 0.823529 0.205882
vt 0.794118 0.088235
vt 0.794118 0.205882
vt 0.441176 0.911765
vt 0.411765 0.941176
vt 0.441176 0.941176
vt 0.500000 0.264706
vt 0.500000 0.500000
vt 0.470588 0.529412
vt 0.941176 0.264706
vt 0.911765 0.264706
vt 0.941176 0.058824
vt 0.911765 0.000000
vt 0.941176 0.000000
vt 0.470588 0.794118
vt 0.764706 0.735294
vt 0.470588 0.735294
vt 0.470588 0.676471
vt 0.764706 0.676471
vt 0.794118 0.176471
vt 0.794118 0.264706
vt 0.764706 0.235294
vt 0.529412 0.323529
vt 0.823529 0.264706
vt 0.529412 0.264706
vt 0.882353 0.529412
vt 0.852941 0.558824
vt 0.882353 0.794118
vt 0.911765 0.911765
vt 0.882353 0.941176
vt 0.911765 0.941176
vt 0.764706 0.147059
vt 0.941176 0.235294
vt 0.882353 0.117647
vt 0.852941 0.088235
vt 0.735294 0.588235
vt 0.705882 0.588235
vt 0.470588 0.617647
vt 0.323529 0.911765
vt 0.323529 0.941176
vt 0.294118 0.911765
vt 0.529412 0.558824
vt 0.823529 0.558824
vt 0.911765 0.058824
vt 0.882353 0.000000
vt 0.852941 0.941176
vt 0.823529 0.911765
vt 0.823529 0.941176
vt 0.000000 0.911765
vt 0.294118 0.941176
vt 0.735294 0.352941
vt 0.823529 0.352941
vt 0.117647 0.500000
vt 0.147059 0.500000
vt 0.000000 0.470588
vt 0.470588 0.470588
vt 0.411765 0.500000
vt 0.441176 0.500000
vt 0.941176 0.882353
vt 0.941176 0.852941
vt 0.470588 0.823529
vt 0.441176 0.882353
vt 0.029412 0.882353
vt 0.941176 0.147059
vt 0.941176 0.176471
vt 0.764706 0.852941
vt 0.794118 0.764706
vt 0.794118 0.558824
vt 0.000000 0.970588
vt 0.294118 0.970588
vt 0.764706 0.588235
vt 0.470588 0.558824
vt 0.852941 0.205882
vt 0.823529 0.088235
vt 0.352941 0.794118
vt 0.382353 0.500000
vt 0.352941 0.500000
vt 0.382353 0.911765
vt 0.352941 0.941176
vt 0.382353 0.941176
vt 0.764706 0.617647
vt 0.117647 0.794118
vt 0.088235 0.794118
vt 0.029412 0.823529
vt 0.852941 0.911765
vt 0.882353 0.911765
vt 0.941176 0.558824
vt 0.794118 0.911765
vt 0.764706 0.911765
vt 0.852941 0.823529
vt 0.823529 0.852941
vt 0.882353 0.852941
vt 0.029412 0.176471
vt 0.000000 0.176471
vt 0.029412 0.117647
vt 0.470588 0.911765
vt 0.470588 0.941176
vt 0.794118 0.823529
vt 0.852941 0.852941
vt 0.970588 -0.000000
vt 0.941176 0.029412
vt 0.294118 0.500000
vt 0.294118 0.794118
vt 0.323529 0.794118
vt 0.882353 0.088235
vt 0.470588 -0.000000
vt 0.470588 0.088235
vt 0.411765 0.911765
vt 0.941176 0.941176
vt 0.941176 0.911765
vt 0.852941 0.529412
vt 0.852941 0.294118
vt 0.911765 0.235294
vt 0.470588 0.852941
vt 0.764706 0.794118
vt 0.500000 0.558824
vt 0.882353 0.264706
vt 0.823529 0.382353
vt 0.529412 0.382353
vt 0.794118 0.352941
vt 0.794118 0.235294
vt 0.647059 0.941176
vt 0.617647 0.911765
vt 0.588235 0.911765
vt 0.970588 0.029412
vt 0.970588 0.058824
vt 0.529412 0.500000
vt 0.470588 0.264706
vt 0.500000 0.529412
vt 0.470588 0.205882
vt 0.470588 0.176471
vt 0.500000 0.235294
vt 0.735294 0.235294
vt 0.735294 0.205882
vt 0.764706 0.205882
vt 0.823529 0.323529
vt 0.823529 0.529412
vt 0.852941 0.794118
vt 0.470588 0.117647
vt 0.735294 0.117647
vt 0.500000 0.147059
vt 0.500000 0.176471
vt 0.735294 0.147059
vt 0.764706 0.117647
vt 0.911765 0.117647
vt 0.735294 0.617647
vt 0.470588 0.588235
vt 0.352941 0.911765
vt 0.882353 0.058824
vt 0.000000 0.941176
vt 0.529412 0.352941
vt 0.029412 0.500000
vt 0.058824 0.794118
vt 0.058824 0.500000
vt 0.088235 0.500000
vt 0.441176 0.823529
vt 0.264706 0.794118
vt 0.205882 0.794118
vt 0.264706 0.500000
vt 0.205882 0.500000
vt 0.000000 0.500000
vt 0.411765 0.794118
vt 0.470588 0.500000
vt 0.911765 0.882353
vt 0.000000 0.882353
vt 0.000000 0.823529
vt 0.470588 0.882353
vt 0.029412 0.911765
vt 0.764706 0.558824
vt 0.794118 0.852941
vt 0.382353 0.794118
vt 0.323529 0.500000
vt 0.647059 0.911765
vt 0.823529 0.823529
vt 0.441176 0.000000
vt 0.441176 0.176471
vt 0.441176 0.470588
vt 0.029412 0.470588
vt 0.441176 0.117647
vt 0.000000 0.000000
vt 0.029412 0.000000
vt 0.882353 0.294118
vt 0.794118 0.382353
vt 0.617647 0.852941
vt 0.588235 0.852941
s 0
usemtl Untitled_Material
f 61/1/1 58/2/1 59/3/1
f 48/4/2 26/5/2 91/6/2
f 25/7/3 101/8/3 26/9/3
f 95/10/1 87/11/1 96/12/1
f 29/13/4 16/14/4 30/15/4
f 101/16/1 12/17/1 26/18/1
f 53/19/1 75/20/1 80/21/1
f 63/22/4 55/23/4 10/24/4
f 55/25/5 23/26/5 43/27/5
f 46/12/1 11/28/1 94/29/1
f 50/30/2 69/31/2 17/32/2
f 96/33/6 14/34/6 68/35/6
f 102/36/6 48/34/6 91/37/6
f 33/38/3 38/39/3 107/40/3
f 15/41/6 17/42/6 16/43/6
f 93/44/1 44/45/1 82/46/1
f 71/47/4 31/48/4 18/49/4
f 7/50/6 108/38/6 9/20/6
f 35/51/4 103/29/4 104/28/4
f 5/52/4 62/53/4 2/5/4
f 84/54/6 23/55/6 93/56/6
f 43/57/2 45/58/2 54/59/2
f 95/60/3 67/7/3 28/61/3
f 39/51/2 75/3/2 76/1/2
f 87/62/2 67/63/2 14/31/2
f 8/64/1 54/65/1 4/66/1
f 63/67/6 56/68/6 64/59/6
f 71/41/6 19/69/6 89/70/6
f 24/71/1 66/72/1 81/73/1
f 73/74/1 71/75/1 72/76/1
f 89/77/2 70/11/2 92/78/2
f 73/79/2 80/80/2 79/81/2
f 107/2/5 41/82/5 42/83/5
f 57/84/1 19/85/1 18/86/1
f 31/87/3 70/68/3 57/88/3
f 88/89/3 23/55/3 100/90/3
f 79/91/1 74/92/1 78/19/1
f 17/93/1 32/94/1 16/95/1
f 61/96/4 107/97/4 42/98/4
f 11/36/6 12/99/6 66/56/6
f 65/100/1 64/101/1 9/102/1
f 37/48/2 74/103/2 21/104/2
f 29/12/1 50/78/1 15/105/1
f 97/106/3 104/66/3 53/107/3
f 98/108/4 51/109/4 97/110/4
f 66/11/4 94/104/4 11/47/4
f 6/111/5 36/112/5 22/113/5
f 40/24/5 45/114/5 7/115/5
f 58/62/2 41/14/2 52/15/2
f 85/116/5 19/85/5 98/61/5
f 68/117/4 95/65/4 96/103/4
f 61/118/3 41/119/3 60/32/3
f 68/120/1 14/121/1 69/122/1
f 38/123/4 9/124/4 108/125/4
f 56/23/2 90/96/2 64/126/2
f 54/47/6 40/127/6 4/128/6
f 51/42/1 52/129/1 106/130/1
f 75/21/6 77/131/6 80/3/6
f 29/132/3 69/133/3 49/84/3
f 10/43/1 23/26/1 88/134/1
f 25/10/1 13/29/1 47/135/1
f 101/6/4 13/3/4 102/13/4
f 65/136/3 94/8/3 24/137/3
f 44/77/4 36/47/4 6/128/4
f 51/137/3 19/69/3 85/138/3
f 79/131/3 37/39/3 21/139/3
f 36/140/6 2/141/6 78/142/6
f 8/143/4 40/30/4 7/144/4
f 86/104/2 65/117/2 12/110/2
f 61/1/1 60/83/1 58/2/1
f 48/4/2 25/91/2 26/5/2
f 25/7/3 47/145/3 101/8/3
f 95/10/1 28/110/1 87/11/1
f 29/13/4 15/82/4 16/14/4
f 101/16/1 66/72/1 12/17/1
f 53/19/1 76/92/1 75/20/1
f 63/22/4 100/126/4 55/23/4
f 43/27/5 5/146/5 55/25/5
f 23/26/5 84/147/5 43/27/5
f 46/12/1 86/105/1 11/28/1
f 50/30/2 49/62/2 69/31/2
f 96/33/6 87/133/6 14/34/6
f 102/36/6 13/35/6 48/34/6
f 98/148/3 72/149/3 33/38/3
f 38/39/3 103/25/3 106/150/3
f 38/39/3 106/150/3 52/151/3
f 58/152/3 98/148/3 33/38/3
f 59/153/3 58/152/3 33/38/3
f 38/39/3 52/151/3 107/40/3
f 107/40/3 59/153/3 33/38/3
f 15/41/6 50/154/6 17/42/6
f 93/44/1 2/155/1 105/61/1
f 44/45/1 45/156/1 82/46/1
f 93/44/1 105/61/1 44/45/1
f 71/47/4 32/104/4 31/48/4
f 9/20/6 99/125/6 5/157/6
f 9/20/6 5/157/6 43/158/6
f 44/159/6 6/160/6 108/38/6
f 45/161/6 44/159/6 108/38/6
f 9/20/6 43/158/6 8/162/6
f 7/50/6 45/161/6 108/38/6
f 9/20/6 8/162/6 7/50/6
f 35/51/4 106/131/4 103/29/4
f 2/5/4 93/13/4 55/163/4
f 5/52/4 99/123/4 62/53/4
f 2/5/4 55/163/4 5/52/4
f 93/56/6 82/164/6 84/54/6
f 23/55/6 55/165/6 93/56/6
f 43/57/2 84/166/2 82/97/2
f 45/58/2 3/68/2 54/59/2
f 43/57/2 82/97/2 45/58/2
f 95/60/3 27/145/3 67/7/3
f 39/51/2 20/131/2 75/3/2
f 87/62/2 28/167/2 67/63/2
f 8/64/1 43/103/1 54/65/1
f 63/67/6 10/168/6 56/68/6
f 89/70/6 92/154/6 71/41/6
f 71/41/6 18/169/6 19/69/6
f 99/170/1 90/171/1 100/172/1
f 63/173/1 64/101/1 24/71/1
f 26/18/1 12/17/1 9/102/1
f 9/102/1 33/174/1 14/121/1
f 9/102/1 14/121/1 67/175/1
f 91/176/1 26/18/1 9/102/1
f 91/176/1 9/102/1 67/175/1
f 27/177/1 68/120/1 73/74/1
f 91/176/1 67/175/1 27/177/1
f 102/178/1 91/176/1 27/177/1
f 27/177/1 73/74/1 81/73/1
f 81/73/1 62/179/1 99/170/1
f 81/73/1 99/170/1 100/172/1
f 102/178/1 27/177/1 81/73/1
f 101/16/1 102/178/1 81/73/1
f 81/73/1 100/172/1 63/173/1
f 81/73/1 63/173/1 24/71/1
f 66/72/1 101/16/1 81/73/1
f 71/75/1 92/180/1 72/76/1
f 72/76/1 34/181/1 73/74/1
f 89/77/2 57/182/2 70/11/2
f 78/183/2 81/184/2 73/79/2
f 73/79/2 53/185/2 80/80/2
f 80/80/2 77/22/2 22/186/2
f 79/81/2 78/183/2 73/79/2
f 80/80/2 22/186/2 79/81/2
f 107/2/5 52/13/5 41/82/5
f 18/86/1 31/187/1 57/84/1
f 57/84/1 89/188/1 19/85/1
f 31/87/3 32/168/3 70/68/3
f 100/90/3 90/187/3 88/89/3
f 23/55/3 55/165/3 100/90/3
f 79/91/1 21/53/1 74/92/1
f 17/93/1 69/122/1 33/174/1
f 33/174/1 72/76/1 92/180/1
f 33/174/1 92/180/1 70/189/1
f 73/74/1 30/190/1 16/95/1
f 32/94/1 71/75/1 73/74/1
f 17/93/1 33/174/1 70/189/1
f 32/94/1 73/74/1 16/95/1
f 17/93/1 70/189/1 32/94/1
f 61/96/4 59/166/4 107/97/4
f 11/36/6 86/37/6 12/99/6
f 65/100/1 24/71/1 64/101/1
f 90/171/1 99/170/1 9/102/1
f 64/101/1 90/171/1 9/102/1
f 9/102/1 12/17/1 65/100/1
f 37/48/2 1/64/2 74/103/2
f 29/12/1 49/11/1 50/78/1
f 97/106/3 35/65/3 104/66/3
f 104/66/3 39/140/3 76/191/3
f 53/107/3 73/84/3 34/188/3
f 104/66/3 76/191/3 53/107/3
f 53/107/3 34/188/3 97/106/3
f 97/110/4 34/46/4 72/156/4
f 98/108/4 18/192/4 51/109/4
f 97/110/4 72/156/4 98/108/4
f 66/11/4 24/110/4 94/104/4
f 20/193/5 39/124/5 104/149/5
f 103/194/5 38/195/5 108/196/5
f 77/197/5 20/193/5 104/149/5
f 1/198/5 37/199/5 22/113/5
f 22/113/5 77/197/5 104/149/5
f 103/194/5 108/196/5 6/111/5
f 22/113/5 104/149/5 103/194/5
f 36/112/5 1/198/5 22/113/5
f 22/113/5 103/194/5 6/111/5
f 40/24/5 3/22/5 45/114/5
f 83/123/2 85/167/2 58/62/2
f 58/62/2 60/30/2 41/14/2
f 52/15/2 83/123/2 58/62/2
f 98/61/5 58/192/5 85/116/5
f 19/85/5 18/86/5 98/61/5
f 68/117/4 27/109/4 95/65/4
f 61/118/3 42/143/3 41/119/3
f 30/190/1 73/74/1 68/120/1
f 14/121/1 33/174/1 69/122/1
f 69/122/1 30/190/1 68/120/1
f 38/123/4 33/63/4 9/124/4
f 56/23/2 88/98/2 90/96/2
f 54/47/6 3/49/6 40/127/6
f 35/200/1 97/135/1 51/42/1
f 51/42/1 83/155/1 52/129/1
f 106/130/1 35/200/1 51/42/1
f 75/21/6 20/139/6 77/131/6
f 29/132/3 30/33/3 69/133/3
f 88/134/1 56/60/1 10/43/1
f 10/43/1 55/25/1 23/26/1
f 25/10/1 48/12/1 13/29/1
f 101/6/4 47/4/4 13/3/4
f 65/136/3 46/9/3 94/8/3
f 44/77/4 105/182/4 36/47/4
f 85/138/3 83/201/3 51/137/3
f 51/137/3 18/169/3 19/69/3
f 79/131/3 22/29/3 37/39/3
f 74/114/6 1/115/6 36/140/6
f 36/140/6 105/191/6 2/141/6
f 2/141/6 62/202/6 81/203/6
f 78/142/6 74/114/6 36/140/6
f 2/141/6 81/203/6 78/142/6
f 8/143/4 4/119/4 40/30/4
f 86/104/2 46/103/2 65/117/2
