# Blender 4.2.14 LTS
# www.blender.org
mtllib SideWall.mtl
o SideWall
v -2.800000 2.000000 0.100000
v -2.800000 2.000000 -0.100000
v -1.600000 0.600000 0.100000
v -1.600000 0.600000 -0.000000
v 0.000000 1.800000 -0.000000
v 1.100000 0.700000 -0.000000
v 2.100000 0.800000 -0.000000
v 2.200000 0.900000 0.100000
v 2.500000 1.300000 0.100000
v 2.600000 1.400000 0.100000
v -2.700000 0.600000 -0.000000
v -2.700000 0.700000 -0.000000
v -2.600000 0.800000 0.100000
v -2.600000 0.800000 -0.000000
v -1.800000 0.700000 -0.000000
v -1.600000 0.900000 -0.000000
v -1.500000 0.900000 -0.000000
v -0.300000 1.800000 0.100000
v -0.200000 1.700000 -0.000000
v 0.900000 0.700000 -0.000000
v 1.200000 1.200000 0.100000
v 2.000000 0.700000 -0.000000
v 2.300000 1.400000 -0.000000
v 2.300000 1.500000 -0.000000
v 2.400000 1.500000 -0.000000
v 2.800000 0.000000 0.100000
v 2.800000 2.000000 0.100000
v -2.700000 0.600000 0.100000
v -2.600000 0.500000 0.100000
v -2.600000 0.600000 0.100000
v -2.600000 0.700000 0.100000
v -2.500000 0.800000 0.100000
v -2.400000 0.700000 0.100000
v -1.600000 0.900000 0.100000
v -1.500000 1.000000 0.100000
v 0.000000 0.200000 0.100000
v 0.000000 1.600000 0.100000
v 0.900000 0.900000 0.100000
v 1.000000 1.100000 0.100000
v 1.200000 1.100000 0.100000
v 1.300000 1.200000 0.100000
v 1.900000 0.700000 0.100000
v 2.000000 0.700000 0.100000
v 2.200000 0.800000 0.100000
v 2.300000 1.500000 0.100000
v 2.400000 1.300000 0.100000
v 2.400000 1.400000 0.100000
v 2.400000 1.500000 0.100000
v 2.400000 1.600000 0.100000
v 2.500000 1.500000 0.100000
v 2.500000 1.600000 0.100000
v 2.600000 1.500000 0.100000
v -2.600000 0.600000 -0.000000
v -2.600000 0.700000 -0.000000
v -2.400000 0.500000 -0.000000
v -2.400000 0.700000 -0.000000
v -1.700000 0.600000 -0.000000
v -1.500000 1.000000 -0.000000
v -1.400000 0.700000 -0.000000
v -0.300000 1.700000 -0.000000
v -0.200000 1.600000 -0.000000
v 0.900000 0.900000 -0.000000
v 0.900000 1.000000 -0.000000
v 1.000000 1.000000 -0.000000
v 1.200000 1.100000 -0.000000
v 1.200000 1.200000 -0.000000
v 1.900000 0.800000 -0.000000
v 2.000000 0.800000 -0.000000
v 2.000000 0.900000 -0.000000
v 2.500000 1.500000 -0.000000
v 2.500000 1.600000 -0.000000
v 2.600000 1.500000 -0.000000
v -2.800000 -0.000000 -0.100000
v -2.800000 0.000000 0.100000
v 2.800000 -0.000000 -0.100000
v -2.700000 0.700000 0.100000
v -2.500000 0.700000 0.100000
v -2.500000 0.700000 -0.000000
v -1.800000 0.800000 0.100000
v -1.600000 0.800000 0.100000
v 0.900000 0.800000 0.100000
v 1.100000 0.800000 0.100000
v 1.900000 0.800000 0.100000
v 2.000000 0.800000 0.100000
v -2.500000 0.800000 -0.000000
v -1.800000 0.800000 -0.000000
v -1.600000 0.800000 -0.000000
v 0.900000 0.800000 -0.000000
v 1.100000 0.800000 -0.000000
v -1.500000 0.900000 0.100000
v 2.000000 0.900000 0.100000
v 2.200000 0.900000 -0.000000
v -1.400000 1.000000 0.100000
v 0.900000 1.000000 0.100000
v 1.000000 1.000000 0.100000
v -1.400000 1.000000 -0.000000
v 1.000000 1.100000 -0.000000
v 1.300000 1.200000 -0.000000
v 2.400000 1.600000 -0.000000
v 0.000000 1.800000 0.100000
v -0.300000 1.800000 -0.000000
v -2.400000 0.500000 0.100000
v -2.600000 0.500000 -0.000000
v -1.700000 0.600000 0.100000
v 2.000000 0.600000 0.100000
v 2.100000 0.600000 0.100000
v 2.000000 0.600000 -0.000000
v 2.100000 0.600000 -0.000000
v -1.800000 0.700000 0.100000
v -1.700000 0.700000 0.100000
v -1.600000 0.700000 0.100000
v -1.400000 0.700000 0.100000
v 0.900000 0.700000 0.100000
v 1.100000 0.700000 0.100000
v -1.700000 0.700000 -0.000000
v -1.600000 0.700000 -0.000000
v 1.900000 0.700000 -0.000000
v 2.100000 0.800000 0.100000
v 2.200000 0.800000 -0.000000
v 1.300000 0.900000 0.100000
v 1.300000 0.900000 -0.000000
v 2.400000 1.300000 -0.000000
v 2.500000 1.300000 -0.000000
v 2.300000 1.400000 0.100000
v 2.500000 1.400000 0.100000
v 2.400000 1.400000 -0.000000
v 2.500000 1.400000 -0.000000
v 2.600000 1.400000 -0.000000
v -0.200000 1.600000 0.100000
v 0.000000 1.600000 -0.000000
v -0.300000 1.700000 0.100000
v -0.200000 1.700000 0.100000
v 2.800000 2.000000 -0.100000
vn 1.0000 -0.0000 -0.0000
vn -0.0000 1.0000 -0.0000
vn -1.0000 -0.0000 -0.0000
vn -0.0000 -1.0000 -0.0000
vn -0.0000 -0.0000 1.0000
vn -0.0000 -0.0000 -1.0000
vt 0.684211 0.824561
vt 0.666667 0.842105
vt 0.666667 0.824561
vt 0.543860 0.842105
vt 0.526316 0.859649
vt 0.543860 0.859649
vt 0.385965 0.807018
vt 0.438596 0.824561
vt 0.438596 0.807018
vt 0.280702 0.842105
vt 0.298246 0.859649
vt 0.298246 0.842105
vt 0.280702 0.824561
vt 0.315789 0.842105
vt 0.315789 0.824561
vt 0.491228 0.859649
vt 0.473684 0.842105
vt 0.491228 0.842105
vt 0.578947 0.807018
vt 0.543860 0.824561
vt 0.543860 0.807018
vt 0.719298 0.157895
vt 0.842105 0.105263
vt 0.824561 0.122807
vt 0.473684 0.807018
vt 0.438596 0.859649
vt 0.421053 0.842105
vt 0.438596 0.842105
vt 0.526316 0.824561
vt 0.649123 0.842105
vt 0.649123 0.824561
vt 0.456140 0.859649
vt 0.456140 0.842105
vt 0.578947 0.824561
vt 0.561404 0.842105
vt 0.561404 0.824561
vt 0.245614 0.859649
vt 0.228070 0.842105
vt 0.245614 0.842105
vt 0.842105 0.824561
vt 0.824561 0.842105
vt 0.824561 0.824561
vt 0.912281 0.245614
vt 0.842105 0.157895
vt 0.877193 0.157895
vt 0.614035 0.824561
vt 0.596491 0.842105
vt 0.596491 0.824561
vt 0.000000 0.736842
vt 0.982456 0.771930
vt 0.982456 0.736842
vt 0.122807 0.842105
vt 0.122807 0.824561
vt 0.140351 0.842105
vt 0.701754 0.771930
vt 0.350877 0.807018
vt 0.350877 0.771930
vt 0.754386 0.824561
vt 0.719298 0.789474
vt 0.736842 0.789474
vt 0.614035 0.842105
vt 0.596491 0.859649
vt 0.614035 0.859649
vt 0.614035 0.807018
vt 0.649123 0.807018
vt 0.368421 0.842105
vt 0.350877 0.859649
vt 0.350877 0.842105
vt 0.263158 0.842105
vt 0.263158 0.859649
vt 0.280702 0.859649
vt 0.403509 0.859649
vt 0.403509 0.842105
vt 0.631579 0.842105
vt 0.631579 0.824561
vt 0.473684 0.824561
vt 0.491228 0.824561
vt 0.789474 0.824561
vt 0.771930 0.842105
vt 0.771930 0.824561
vt 0.333333 0.824561
vt 0.333333 0.807018
vt 0.245614 0.824561
vt 0.912281 0.280702
vt 0.929825 0.280702
vt 0.982456 0.350877
vt 0.456140 0.824561
vt 0.807018 0.842105
vt 0.807018 0.824561
vt 0.508772 0.824561
vt 0.526316 0.842105
vt 0.017544 0.105263
vt 0.000000 0.000000
vt 0.035088 0.087719
vt 0.228070 0.859649
vt 0.210526 0.842105
vt 0.210526 0.859649
vt 0.192982 0.842105
vt 0.508772 0.842105
vt 0.000000 0.807018
vt 0.000000 0.771930
vt 0.789474 0.842105
vt 0.684211 0.807018
vt 0.333333 0.859649
vt 0.333333 0.842105
vt 0.280702 0.807018
vt 0.210526 0.824561
vt 0.385965 0.824561
vt 0.403509 0.824561
vt 0.578947 0.859649
vt 0.421053 0.824561
vt 0.000000 0.350877
vt 0.982456 0.701754
vt 0.175439 0.859649
vt 0.175439 0.842105
vt 0.473684 0.859649
vt 0.315789 0.859649
vt 0.824561 0.807018
vt 0.771930 0.771930
vt 0.842105 0.771930
vt 0.157895 0.859649
vt 0.157895 0.842105
vt 0.385965 0.842105
vt 0.350877 0.824561
vt 0.087719 0.842105
vt 0.070175 0.842105
vt 0.070175 0.824561
vt 0.385965 0.859649
vt 0.508772 0.859649
vt 0.578947 0.842105
vt 0.561404 0.859649
vt 0.245614 0.122807
vt 0.491228 0.035088
vt 0.157895 0.824561
vt 0.175439 0.824561
vt 0.035088 0.824561
vt 0.035088 0.842105
vt 0.017544 0.842105
vt 0.368421 0.859649
vt 0.508772 0.807018
vt 0.684211 0.842105
vt 0.824561 0.140351
vt 0.842105 0.140351
vt 0.719298 0.210526
vt 0.649123 0.157895
vt 0.649123 0.140351
vt 0.684211 0.140351
vt 0.684211 0.122807
vt 0.842105 0.122807
vt 0.421053 0.859649
vt 0.842105 0.842105
vt 0.912281 0.228070
vt 0.894737 0.245614
vt 0.122807 0.859649
vt 0.105263 0.842105
vt 0.105263 0.824561
vt 0.122807 0.807018
vt 0.140351 0.807018
vt 0.701754 0.807018
vt 0.771930 0.789474
vt 0.754386 0.842105
vt 0.736842 0.824561
vt 0.736842 0.807018
vt 0.701754 0.789474
vt 0.719298 0.771930
vt 0.736842 0.771930
vt 0.649123 0.175439
vt 0.666667 0.175439
vt 0.666667 0.192982
vt 0.701754 0.192982
vt 0.701754 0.210526
vt 0.894737 0.263158
vt 0.912281 0.263158
vt 0.929825 0.263158
vt 0.947368 0.263158
vt 0.947368 0.245614
vt 0.929825 0.245614
vt 0.929825 0.228070
vt 0.877193 0.140351
vt 0.859649 0.140351
vt 0.859649 0.105263
vt 0.982456 0.000000
vt 0.491228 0.315789
vt 0.491228 0.280702
vt 0.017544 0.122807
vt 0.210526 0.105263
vt 0.192982 0.105263
vt 0.070175 0.087719
vt 0.035088 0.105263
vt 0.192982 0.859649
vt 0.210526 0.807018
vt 0.000000 0.701754
vt 0.789474 0.807018
vt 0.789474 0.789474
vt 0.070175 0.807018
vt 0.105263 0.807018
vt 0.087719 0.859649
vt 0.070175 0.859649
vt 0.052632 0.842105
vt 0.052632 0.824561
vt 0.175439 0.140351
vt 0.210526 0.140351
vt 0.210526 0.157895
vt 0.228070 0.157895
vt 0.228070 0.175439
vt 0.192982 0.122807
vt 0.175439 0.122807
vt 0.052632 0.140351
vt 0.052632 0.122807
vt 0.070175 0.122807
vt 0.035088 0.122807
vt 0.035088 0.140351
vt 0.438596 0.315789
vt 0.245614 0.175439
vt 0.438596 0.298246
vt 0.456140 0.280702
vt 0.456140 0.298246
vt 0.649123 0.122807
vt 0.210526 0.122807
vt 0.175439 0.807018
vt 0.000000 0.842105
vt 0.000000 0.824561
vt 0.017544 0.824561
vt 0.017544 0.807018
vt 0.035088 0.807018
vt 0.035088 0.859649
vt 0.017544 0.859649
s 0
usemtl SideWall_Material
f 63/1/1 38/2/1 62/3/1
f 108/4/2 105/5/2 106/6/2
f 59/7/3 93/8/3 96/9/3
f 4/10/3 111/11/3 116/12/3
f 130/13/3 100/14/3 5/15/3
f 41/16/4 66/17/4 98/18/4
f 92/19/4 91/20/4 69/21/4
f 120/22/5 105/23/5 42/24/5
f 129/8/2 130/25/2 61/9/2
f 33/26/4 78/27/4 56/28/4
f 70/29/3 51/4/3 71/20/3
f 88/3/1 113/30/1 20/31/1
f 32/32/4 14/28/4 85/33/4
f 53/34/1 29/35/1 103/36/1
f 95/37/4 63/38/4 64/39/4
f 24/40/1 124/41/1 23/42/1
f 47/43/5 91/44/5 8/45/5
f 58/46/1 90/47/1 17/48/1
f 2/49/2 27/50/2 133/51/2
f 68/52/5 22/53/5 7/54/5
f 133/55/1 26/56/1 75/57/1
f 17/58/5 115/59/5 116/60/5
f 128/61/2 125/62/2 10/63/2
f 116/64/2 112/31/2 59/65/2
f 16/66/1 80/67/1 87/68/1
f 4/69/2 104/37/2 3/70/2
f 19/10/2 131/70/2 132/71/2
f 101/27/1 131/72/1 60/73/1
f 19/31/1 129/74/1 61/75/1
f 78/76/3 32/18/3 85/77/3
f 97/78/1 95/79/1 64/80/1
f 120/81/3 98/7/3 121/82/3
f 108/83/3 118/10/3 7/13/3
f 49/84/5 51/85/5 27/86/5
f 119/87/2 118/28/2 44/33/2
f 53/8/2 28/27/2 30/28/2
f 67/42/1 42/88/1 117/89/1
f 123/90/3 125/91/3 127/29/3
f 28/92/5 74/93/5 29/94/5
f 93/95/4 58/96/4 96/38/4
f 90/97/4 16/98/4 17/96/4
f 51/5/4 99/99/4 71/91/4
f 74/100/3 2/57/3 73/101/3
f 66/89/1 40/102/1 65/78/1
f 6/103/2 113/31/2 114/1/2
f 115/68/1 104/104/1 57/105/1
f 121/106/2 38/107/2 120/13/2
f 31/73/4 12/108/4 54/109/4
f 100/81/4 101/106/4 5/82/4
f 128/20/3 52/35/3 72/36/3
f 40/46/4 97/19/4 65/64/4
f 123/47/2 46/110/2 9/62/2
f 126/76/2 124/33/2 47/17/2
f 48/27/4 24/109/4 25/111/4
f 86/75/1 109/61/1 15/46/1
f 73/112/6 133/113/6 75/86/6
f 99/98/1 48/114/1 25/115/1
f 84/116/4 67/33/4 68/17/4
f 119/12/3 8/117/3 92/14/3
f 65/118/5 62/119/5 121/120/5
f 126/115/1 46/121/1 122/122/1
f 102/96/3 56/83/3 55/107/3
f 102/123/2 103/124/2 29/68/2
f 78/125/5 54/126/5 53/127/5
f 69/73/1 84/128/1 68/123/1
f 52/129/4 70/18/4 72/99/4
f 12/105/1 28/117/1 11/14/1
f 22/130/2 42/131/2 43/110/2
f 112/132/5 74/93/5 36/133/5
f 6/77/3 82/99/3 89/90/3
f 5/96/5 60/134/5 19/135/5
f 127/136/5 70/137/5 25/138/5
f 115/35/2 109/6/2 110/131/2
f 74/49/4 75/113/4 26/51/4
f 22/123/1 105/139/1 107/66/1
f 86/15/4 80/68/4 79/14/4
f 20/25/5 89/90/5 88/76/5
f 14/48/1 31/130/1 54/34/1
f 89/21/4 81/90/4 88/140/4
f 63/1/1 94/141/1 38/2/1
f 108/4/2 107/91/2 105/5/2
f 59/7/3 112/108/3 93/8/3
f 4/10/3 3/71/3 111/11/3
f 130/13/3 37/10/3 100/14/3
f 41/16/4 21/116/4 66/17/4
f 92/19/4 8/34/4 91/20/4
f 83/142/5 84/143/5 91/44/5
f 91/44/5 41/144/5 120/22/5
f 120/22/5 38/145/5 81/146/5
f 82/147/5 114/148/5 105/23/5
f 120/22/5 81/146/5 82/147/5
f 83/142/5 91/44/5 120/22/5
f 105/23/5 43/149/5 42/24/5
f 42/24/5 83/142/5 120/22/5
f 120/22/5 82/147/5 105/23/5
f 129/8/2 37/76/2 130/25/2
f 33/26/4 77/150/4 78/27/4
f 70/29/3 50/91/3 51/4/3
f 88/3/1 81/2/1 113/30/1
f 32/32/4 13/26/4 14/28/4
f 53/34/1 30/130/1 29/35/1
f 95/37/4 94/95/4 63/38/4
f 24/40/1 45/151/1 124/41/1
f 8/45/5 46/152/5 47/43/5
f 47/43/5 124/153/5 91/44/5
f 58/46/1 35/61/1 90/47/1
f 2/49/2 1/101/2 27/50/2
f 92/121/5 69/154/5 68/52/5
f 68/52/5 67/155/5 117/156/5
f 22/53/5 107/157/5 108/158/5
f 68/52/5 117/156/5 22/53/5
f 7/54/5 119/122/5 92/121/5
f 22/53/5 108/158/5 7/54/5
f 7/54/5 92/121/5 68/52/5
f 133/55/1 27/159/1 26/56/1
f 116/60/5 59/160/5 96/79/5
f 96/79/5 58/161/5 17/58/5
f 17/58/5 16/162/5 87/163/5
f 87/163/5 86/159/5 15/164/5
f 115/59/5 57/165/5 4/166/5
f 87/163/5 15/164/5 115/59/5
f 116/60/5 96/79/5 17/58/5
f 17/58/5 87/163/5 115/59/5
f 115/59/5 4/166/5 116/60/5
f 128/61/2 127/47/2 125/62/2
f 116/64/2 111/46/2 112/31/2
f 16/66/1 34/139/1 80/67/1
f 4/69/2 57/39/2 104/37/2
f 19/10/2 60/69/2 131/70/2
f 101/27/1 18/150/1 131/72/1
f 19/31/1 132/30/1 129/74/1
f 78/76/3 77/17/3 32/18/3
f 97/78/1 39/102/1 95/79/1
f 120/81/3 41/108/3 98/7/3
f 108/83/3 106/39/3 118/10/3
f 94/167/5 95/168/5 39/169/5
f 39/169/5 40/170/5 21/171/5
f 41/144/5 91/44/5 124/153/5
f 21/171/5 41/144/5 124/153/5
f 45/172/5 48/173/5 49/84/5
f 21/171/5 124/153/5 45/172/5
f 21/171/5 45/172/5 49/84/5
f 51/85/5 50/174/5 52/175/5
f 10/176/5 125/177/5 9/178/5
f 9/178/5 46/152/5 8/45/5
f 44/179/5 118/180/5 106/181/5
f 9/178/5 8/45/5 44/179/5
f 10/176/5 9/178/5 44/179/5
f 10/176/5 44/179/5 106/181/5
f 105/23/5 114/148/5 26/182/5
f 27/86/5 100/183/5 37/184/5
f 37/184/5 36/133/5 38/145/5
f 37/184/5 38/145/5 94/167/5
f 106/181/5 105/23/5 26/182/5
f 10/176/5 106/181/5 26/182/5
f 37/184/5 94/167/5 39/169/5
f 37/184/5 39/169/5 21/171/5
f 10/176/5 26/182/5 27/86/5
f 52/175/5 10/176/5 27/86/5
f 27/86/5 37/184/5 21/171/5
f 27/86/5 21/171/5 49/84/5
f 51/85/5 52/175/5 27/86/5
f 119/87/2 7/8/2 118/28/2
f 53/8/2 11/111/2 28/27/2
f 67/42/1 83/41/1 42/88/1
f 123/90/3 9/99/3 125/91/3
f 28/92/5 76/185/5 1/112/5
f 74/93/5 3/186/5 104/187/5
f 74/93/5 104/187/5 102/188/5
f 28/92/5 1/112/5 74/93/5
f 29/94/5 30/189/5 28/92/5
f 74/93/5 102/188/5 29/94/5
f 93/95/4 35/97/4 58/96/4
f 90/97/4 34/190/4 16/98/4
f 51/5/4 49/129/4 99/99/4
f 74/100/3 1/56/3 2/57/3
f 66/89/1 21/88/1 40/102/1
f 6/103/2 20/65/2 113/31/2
f 115/68/1 110/67/1 104/104/1
f 121/106/2 62/191/2 38/107/2
f 31/73/4 76/123/4 12/108/4
f 100/81/4 18/13/4 101/106/4
f 128/20/3 10/4/3 52/35/3
f 40/46/4 39/34/4 97/19/4
f 123/47/2 122/130/2 46/110/2
f 126/76/2 23/87/2 124/33/2
f 48/27/4 45/73/4 24/109/4
f 86/75/1 79/74/1 109/61/1
f 73/112/6 2/192/6 133/113/6
f 99/98/1 49/190/1 48/114/1
f 84/116/4 83/32/4 67/33/4
f 119/12/3 44/11/3 8/117/3
f 65/118/5 97/193/5 64/194/5
f 64/194/5 63/160/5 62/119/5
f 121/120/5 98/40/5 66/42/5
f 65/118/5 64/194/5 62/119/5
f 121/120/5 66/42/5 65/118/5
f 126/115/1 47/114/1 46/121/1
f 102/96/3 33/39/3 56/83/3
f 102/123/2 55/108/2 103/124/2
f 103/195/5 55/196/5 56/155/5
f 78/125/5 85/197/5 14/198/5
f 103/195/5 56/155/5 78/125/5
f 12/199/5 11/200/5 53/127/5
f 53/127/5 103/195/5 78/125/5
f 78/125/5 14/198/5 54/126/5
f 54/126/5 12/199/5 53/127/5
f 69/73/1 91/72/1 84/128/1
f 52/129/4 50/16/4 70/18/4
f 12/105/1 76/104/1 28/117/1
f 22/130/2 117/35/2 42/131/2
f 79/201/5 80/202/5 34/203/5
f 34/203/5 90/204/5 35/205/5
f 79/201/5 34/203/5 35/205/5
f 104/187/5 110/206/5 109/207/5
f 102/188/5 104/187/5 109/207/5
f 32/208/5 77/209/5 33/210/5
f 33/210/5 102/188/5 109/207/5
f 33/210/5 109/207/5 79/201/5
f 32/208/5 33/210/5 79/201/5
f 32/208/5 79/201/5 35/205/5
f 76/185/5 31/211/5 13/212/5
f 13/212/5 32/208/5 35/205/5
f 1/112/5 76/185/5 13/212/5
f 100/183/5 27/86/5 1/112/5
f 18/213/5 100/183/5 1/112/5
f 1/112/5 13/212/5 35/205/5
f 1/112/5 35/205/5 93/214/5
f 131/215/5 18/213/5 1/112/5
f 129/216/5 132/217/5 131/215/5
f 36/133/5 37/184/5 129/216/5
f 81/146/5 38/145/5 36/133/5
f 26/182/5 114/148/5 113/218/5
f 113/218/5 81/146/5 36/133/5
f 36/133/5 129/216/5 131/215/5
f 131/215/5 1/112/5 93/214/5
f 112/132/5 111/219/5 3/186/5
f 131/215/5 93/214/5 112/132/5
f 26/182/5 113/218/5 36/133/5
f 36/133/5 131/215/5 112/132/5
f 112/132/5 3/186/5 74/93/5
f 74/93/5 26/182/5 36/133/5
f 6/77/3 114/18/3 82/99/3
f 61/220/5 130/191/5 5/96/5
f 5/96/5 101/122/5 60/134/5
f 19/135/5 61/220/5 5/96/5
f 24/221/5 23/222/5 126/223/5
f 126/223/5 122/224/5 123/225/5
f 127/136/5 128/200/5 72/199/5
f 126/223/5 123/225/5 127/136/5
f 25/138/5 24/221/5 126/223/5
f 71/226/5 99/227/5 25/138/5
f 127/136/5 72/199/5 70/137/5
f 70/137/5 71/226/5 25/138/5
f 25/138/5 126/223/5 127/136/5
f 115/35/2 15/4/2 109/6/2
f 74/49/4 73/192/4 75/113/4
f 22/123/1 43/128/1 105/139/1
f 86/15/4 87/124/4 80/68/4
f 20/25/5 6/140/5 89/90/5
f 14/48/1 13/47/1 31/130/1
f 89/21/4 82/20/4 81/90/4
