# Blender 4.2.14 LTS
# www.blender.org
mtllib Sleeping_Mat.mtl
o Sleeping_Mat
v -0.800000 0.100000 1.400000
v -0.800000 0.400000 -1.600000
v -0.600000 -0.000000 -0.600000
v -0.600000 0.100000 -0.600000
v -0.600000 0.100000 -0.700000
v -0.600000 0.200000 -0.700000
v -0.500000 0.100000 -0.900000
v -0.500000 0.100000 -1.300000
v -0.600000 -0.000000 -1.400000
v -0.600000 0.400000 -1.400000
v -0.600000 0.400000 -1.600000
v -0.400000 0.100000 -0.700000
v -0.300000 0.200000 -0.500000
v -0.200000 0.100000 1.600000
v -0.200000 0.100000 1.500000
v -0.100000 0.100000 1.400000
v -0.100000 0.200000 1.500000
v -0.100000 0.200000 1.400000
v 0.200000 0.200000 1.400000
v 0.500000 0.100000 -1.300000
v 0.500000 0.200000 -0.900000
v 0.500000 0.200000 -1.300000
v 0.600000 0.000000 1.500000
v 0.600000 0.100000 1.200000
v 0.600000 0.100000 -0.300000
v 0.600000 0.100000 -0.400000
v 0.600000 0.100000 -1.400000
v 0.600000 0.200000 1.300000
v 0.700000 0.100000 0.800000
v 0.700000 0.100000 -0.300000
v 0.800000 0.000000 0.800000
v 0.800000 0.100000 0.800000
v -0.200000 0.000000 1.600000
v -0.200000 0.000000 1.500000
v 0.700000 0.000000 1.200000
v 0.700000 0.100000 1.200000
v 0.500000 0.100000 -0.900000
v -0.800000 -0.000000 -1.400000
v -0.800000 0.400000 -1.400000
v -0.600000 0.100000 -1.400000
v 0.700000 0.100000 -0.100000
v 0.600000 -0.000000 -0.300000
v 0.500000 0.100000 -0.400000
v 0.500000 0.200000 -0.400000
v 0.600000 0.200000 -0.400000
v -0.800000 -0.000000 -0.500000
v -0.700000 0.100000 -0.500000
v -0.100000 0.100000 -0.500000
v -0.100000 0.200000 -0.500000
v 0.200000 0.100000 -0.500000
v 0.500000 0.100000 -0.500000
v 0.500000 0.200000 -0.500000
v -0.300000 0.100000 -0.600000
v -0.300000 0.200000 -0.600000
v -0.100000 0.100000 -0.600000
v -0.100000 0.200000 -0.600000
v 0.200000 0.100000 -0.600000
v 0.200000 0.200000 -0.600000
v -0.400000 0.200000 -0.700000
v -0.600000 0.000000 1.600000
v -0.800000 0.000000 1.400000
v -0.600000 0.000000 1.400000
v 0.600000 0.000000 1.200000
v 0.700000 0.000000 0.800000
v 0.700000 -0.000000 -0.100000
v 0.800000 -0.000000 -0.100000
v 0.700000 -0.000000 -0.300000
v -0.700000 -0.000000 -0.500000
v -0.700000 -0.000000 -0.600000
v 0.600000 -0.000000 -1.400000
v -0.800000 -0.000000 -1.600000
v -0.600000 -0.000000 -1.600000
v -0.600000 0.100000 1.600000
v -0.600000 0.100000 1.500000
v -0.100000 0.100000 1.500000
v 0.600000 0.100000 1.500000
v -0.600000 0.100000 1.400000
v 0.200000 0.100000 1.400000
v 0.200000 0.100000 1.300000
v 0.600000 0.100000 1.300000
v 0.800000 0.100000 -0.100000
v -0.800000 0.100000 -0.500000
v -0.300000 0.100000 -0.500000
v -0.700000 0.100000 -0.600000
v -0.400000 0.100000 -0.600000
v -0.600000 0.200000 1.500000
v 0.200000 0.200000 1.300000
v 0.200000 0.200000 -0.500000
v -0.400000 0.200000 -0.600000
v -0.500000 0.200000 -0.900000
v -0.500000 0.200000 -1.300000
vn -0.0000 -0.0000 1.0000
vn 1.0000 -0.0000 -0.0000
vn -0.0000 1.0000 -0.0000
vn -0.0000 -0.0000 -1.0000
vn -1.0000 -0.0000 -0.0000
vn -0.0000 -1.0000 -0.0000
vt 0.631579 0.000000
vt 0.710526 0.026316
vt 0.631579 0.026316
vt 0.394737 0.710526
vt 0.421053 0.684211
vt 0.421053 0.710526
vt 0.973684 0.500000
vt 0.947368 0.526316
vt 0.947368 0.500000
vt 0.578947 0.921053
vt 0.842105 0.894737
vt 0.842105 0.921053
vt 0.631579 0.526316
vt 0.710526 0.078947
vt 0.631579 0.052632
vt 0.973684 0.684211
vt 0.947368 0.657895
vt 0.947368 0.684211
vt 0.973684 0.552632
vt 0.947368 0.578947
vt 0.947368 0.552632
vt 0.947368 0.000000
vt 0.868421 0.894737
vt 0.131579 0.947368
vt 0.105263 0.973684
vt 0.105263 0.947368
vt 0.842105 0.605263
vt 0.815789 0.842105
vt 0.815789 0.605263
vt 0.921053 0.000000
vt 0.921053 0.026316
vt 0.842105 0.052632
vt 0.763158 0.052632
vt 0.736842 0.000000
vt 0.947368 0.710526
vt 0.973684 0.710526
vt 0.421053 0.578947
vt 0.447368 0.710526
vt 0.447368 0.605263
vt 0.421053 0.789474
vt 0.447368 0.815789
vt 0.447368 0.789474
vt 0.000000 0.947368
vt 0.000000 0.973684
vt 0.315789 0.973684
vt 0.421053 0.947368
vt 0.315789 0.947368
vt 0.973684 0.605263
vt 0.947368 0.605263
vt 0.973684 0.842105
vt 0.947368 0.868421
vt 0.947368 0.842105
vt 0.763158 0.894737
vt 0.657895 0.842105
vt 0.657895 0.868421
vt 0.421053 0.736842
vt 0.394737 0.736842
vt 0.105263 0.921053
vt 0.315789 0.894737
vt 0.131579 0.921053
vt 0.210526 0.921053
vt 0.315789 0.921053
vt 0.526316 0.973684
vt 0.421053 0.973684
vt 0.763158 0.263158
vt 0.763158 0.789474
vt 0.789474 0.236842
vt 0.868421 0.815789
vt 0.868421 0.421053
vt 0.894737 0.842105
vt 0.394737 0.000000
vt 0.421053 0.105263
vt 0.421053 0.000000
vt 0.421053 0.815789
vt 0.368421 0.763158
vt 0.421053 0.763158
vt 0.868421 0.000000
vt 0.842105 0.105263
vt 0.842105 0.000000
vt 0.000000 0.789474
vt 0.052632 0.815789
vt 0.052632 0.894737
vt 0.921053 0.815789
vt 0.921053 0.578947
vt 0.894737 0.921053
vt 0.842105 0.578947
vt 0.815789 0.552632
vt 0.815789 0.578947
vt 0.000000 0.000000
vt 0.026316 0.105263
vt 0.000000 0.105263
vt 0.710526 0.815789
vt 0.736842 0.842105
vt 0.710526 0.710526
vt 0.947368 0.631579
vt 0.578947 0.842105
vt 0.605263 0.868421
vt 0.605263 0.842105
vt 0.736842 0.578947
vt 0.657895 0.552632
vt 0.657895 0.578947
vt 0.973684 0.526316
vt 0.578947 0.947368
vt 0.052632 0.789474
vt 0.368421 0.815789
vt 0.368421 0.789474
vt 0.842105 0.552632
vt 0.815789 0.526316
vt 0.973684 0.736842
vt 0.947368 0.736842
vt 0.578947 0.973684
vt 0.526316 0.947368
vt 1.000000 1.000000
vt 0.947368 0.894737
vt 0.947368 1.000000
vt 0.394737 0.157895
vt 0.394737 0.105263
vt 0.815789 0.894737
vt 0.315789 0.842105
vt 0.236842 0.868421
vt 0.315789 0.868421
vt 0.052632 0.736842
vt 0.052632 0.210526
vt 0.368421 0.289474
vt 0.868421 0.921053
vt 0.921053 0.947368
vt 0.921053 0.921053
vt 0.131579 0.973684
vt 0.184211 0.947368
vt 0.184211 0.973684
vt 0.710526 0.000000
vt 0.394737 0.684211
vt 0.578947 0.894737
vt 0.500000 0.052632
vt 0.500000 0.026316
vt 0.473684 0.026316
vt 0.473684 0.000000
vt 0.552632 0.578947
vt 0.552632 0.552632
vt 0.631579 0.552632
vt 0.552632 0.026316
vt 0.552632 0.052632
vt 0.736842 0.526316
vt 0.736842 0.078947
vt 0.710526 0.052632
vt 0.973684 0.657895
vt 0.973684 0.578947
vt 0.973684 0.000000
vt 0.842105 0.842105
vt 0.894737 0.026316
vt 0.894737 0.526316
vt 0.736842 0.052632
vt 0.710526 0.605263
vt 0.973684 0.868421
vt 0.578947 0.868421
vt 0.763158 0.842105
vt 0.000000 0.921053
vt 0.105263 0.894737
vt 0.210526 0.973684
vt 0.736842 0.263158
vt 0.736842 0.789474
vt 0.763158 0.815789
vt 0.789474 0.815789
vt 0.763158 0.236842
vt 0.842105 0.815789
vt 0.842105 0.421053
vt 0.842105 0.131579
vt 0.868421 0.131579
vt 0.868421 0.394737
vt 0.894737 0.394737
vt 0.868421 0.842105
vt 0.868421 0.105263
vt 0.000000 0.894737
vt 0.947368 0.815789
vt 0.921053 0.526316
vt 0.026316 0.000000
vt 0.500000 0.815789
vt 0.552632 0.815789
vt 0.552632 0.789474
vt 0.631579 0.789474
vt 0.631579 0.815789
vt 0.500000 0.789474
vt 0.473684 0.763158
vt 0.473684 0.789474
vt 0.710526 0.842105
vt 0.973684 0.631579
vt 0.736842 0.552632
vt 0.842105 0.947368
vt 0.842105 0.526316
vt 1.000000 0.894737
vt 0.421053 0.157895
vt 0.236842 0.842105
vt 0.394737 0.578947
vt 0.368421 0.684211
vt 0.157895 0.763158
vt 0.157895 0.789474
vt 0.000000 0.736842
vt 0.000000 0.236842
vt 0.421053 0.342105
vt 0.394737 0.289474
vt 0.394737 0.342105
vt 0.026316 0.236842
vt 0.026316 0.210526
vt 0.052632 0.000000
vt 0.368421 0.000000
vt 0.868421 0.947368
s 0
usemtl Sleeping_Mat_Material
f 16/1/1 19/2/1 18/3/1
f 29/4/1 31/5/1 32/6/1
f 87/7/2 78/8/2 79/9/2
f 90/10/1 37/11/1 21/12/1
f 87/13/3 44/14/3 88/15/3
f 4/16/4 69/17/4 84/18/4
f 58/19/2 50/20/2 57/21/2
f 1/7/5 46/22/5 61/9/5
f 59/23/2 85/12/2 12/11/2
f 54/24/2 83/25/2 53/26/2
f 81/27/2 31/28/2 66/29/2
f 77/8/3 84/30/3 47/31/3
f 10/32/2 40/33/2 72/34/2
f 24/35/1 35/16/1 36/36/1
f 40/37/3 7/38/3 8/39/3
f 69/40/5 47/41/5 84/42/5
f 79/43/1 28/25/1 87/44/1
f 73/45/3 15/46/3 74/47/3
f 54/48/4 85/20/4 89/49/4
f 18/50/2 75/51/2 16/52/2
f 76/53/3 79/54/3 78/55/3
f 81/56/4 65/4/4 41/57/4
f 15/58/1 23/59/1 75/60/1
f 71/61/5 39/45/5 2/62/5
f 60/46/1 14/63/1 73/64/1
f 4/65/5 77/66/5 6/67/5
f 24/68/2 25/69/2 28/70/2
f 8/71/5 90/72/5 91/73/5
f 9/74/6 71/75/6 72/76/6
f 22/77/2 37/78/2 20/79/2
f 38/80/1 40/81/1 10/82/1
f 29/83/3 41/84/3 24/85/3
f 47/86/4 46/87/4 82/88/4
f 64/89/2 36/90/2 35/91/2
f 51/92/3 26/93/3 37/94/3
f 52/48/2 43/95/2 51/49/2
f 55/96/5 49/97/5 56/98/5
f 58/99/4 55/100/4 56/101/4
f 15/102/2 33/21/2 34/8/2
f 91/103/4 20/12/4 8/10/4
f 9/104/4 27/105/4 70/106/4
f 45/107/4 43/108/4 44/87/4
f 30/109/4 42/35/4 25/110/4
f 49/111/4 83/112/4 13/63/4
f 11/113/4 71/114/4 2/115/4
f 30/72/2 65/116/2 67/117/2
f 11/28/3 39/53/3 10/118/3
f 51/119/4 88/120/4 52/121/4
f 62/122/6 3/123/6 42/124/6
f 21/103/3 91/119/3 90/47/3
f 5/125/4 59/126/4 12/127/4
f 1/128/1 62/129/1 77/130/1
f 16/1/1 78/131/1 19/2/1
f 29/4/1 64/132/1 31/5/1
f 87/7/2 19/102/2 78/8/2
f 90/10/1 7/133/1 37/11/1
f 13/134/3 54/135/3 89/136/3
f 89/136/3 59/137/3 6/73/3
f 6/73/3 86/37/3 17/138/3
f 18/139/3 19/140/3 87/13/3
f 6/73/3 17/138/3 18/139/3
f 13/134/3 89/136/3 6/73/3
f 58/3/3 56/141/3 49/142/3
f 13/134/3 6/73/3 18/139/3
f 88/15/3 58/3/3 49/142/3
f 49/142/3 13/134/3 18/139/3
f 87/13/3 28/143/3 45/144/3
f 49/142/3 18/139/3 87/13/3
f 44/14/3 52/145/3 88/15/3
f 88/15/3 49/142/3 87/13/3
f 87/13/3 45/144/3 44/14/3
f 4/16/4 3/146/4 69/17/4
f 58/19/2 88/147/2 50/20/2
f 1/7/5 82/148/5 46/22/5
f 59/23/2 89/125/2 85/12/2
f 54/24/2 13/128/2 83/25/2
f 81/27/2 32/149/2 31/28/2
f 82/150/3 1/151/3 77/8/3
f 77/8/3 4/22/3 84/30/3
f 47/31/3 82/150/3 77/8/3
f 72/34/2 11/79/2 10/32/2
f 40/33/2 9/152/2 72/34/2
f 24/35/1 63/18/1 35/16/1
f 20/153/3 27/99/3 40/37/3
f 40/37/3 5/76/3 7/38/3
f 8/39/3 20/153/3 40/37/3
f 69/40/5 68/74/5 47/41/5
f 79/43/1 80/26/1 28/25/1
f 73/45/3 14/64/3 15/46/3
f 54/48/4 53/147/4 85/20/4
f 18/50/2 17/154/2 75/51/2
f 16/155/3 75/133/3 76/53/3
f 76/53/3 80/156/3 79/54/3
f 78/55/3 16/155/3 76/53/3
f 81/56/4 66/6/4 65/4/4
f 17/24/1 86/43/1 74/157/1
f 15/58/1 34/158/1 23/59/1
f 17/24/1 74/157/1 15/58/1
f 23/59/1 76/62/1 75/60/1
f 75/60/1 17/24/1 15/58/1
f 71/61/5 38/159/5 39/45/5
f 60/46/1 33/112/1 14/63/1
f 9/152/5 3/160/5 4/65/5
f 77/66/5 62/161/5 60/93/5
f 60/93/5 73/156/5 74/162/5
f 74/162/5 86/163/5 6/67/5
f 5/164/5 40/33/5 9/152/5
f 77/66/5 60/93/5 74/162/5
f 5/164/5 9/152/5 4/65/5
f 77/66/5 74/162/5 6/67/5
f 6/67/5 5/164/5 4/65/5
f 23/11/2 63/165/2 24/68/2
f 25/69/2 42/166/2 70/167/2
f 70/167/2 27/168/2 26/169/2
f 26/169/2 45/170/2 28/70/2
f 80/171/2 76/23/2 23/11/2
f 25/69/2 70/167/2 26/169/2
f 80/171/2 23/11/2 24/68/2
f 25/69/2 26/169/2 28/70/2
f 28/70/2 80/171/2 24/68/2
f 8/71/5 7/117/5 90/72/5
f 9/74/6 38/105/6 71/75/6
f 22/77/2 21/172/2 37/78/2
f 10/82/1 39/173/1 38/80/1
f 38/80/1 9/104/1 40/81/1
f 29/83/3 32/174/3 81/20/3
f 41/84/3 30/175/3 25/151/3
f 29/83/3 81/20/3 41/84/3
f 24/85/3 36/127/3 29/83/3
f 41/84/3 25/151/3 24/85/3
f 47/86/4 68/107/4 46/87/4
f 64/89/2 29/176/2 36/90/2
f 83/177/3 48/178/3 55/179/3
f 57/180/3 50/181/3 51/92/3
f 53/182/3 83/177/3 55/179/3
f 12/183/3 85/184/3 53/182/3
f 7/38/3 5/76/3 12/183/3
f 27/99/3 20/153/3 37/94/3
f 37/94/3 7/38/3 12/183/3
f 12/183/3 53/182/3 55/179/3
f 12/183/3 55/179/3 57/180/3
f 26/93/3 27/99/3 37/94/3
f 37/94/3 12/183/3 57/180/3
f 51/92/3 43/185/3 26/93/3
f 37/94/3 57/180/3 51/92/3
f 52/48/2 44/186/2 43/95/2
f 55/96/5 48/155/5 49/97/5
f 58/99/4 57/187/4 55/100/4
f 15/102/2 14/19/2 33/21/2
f 91/103/4 22/188/4 20/12/4
f 9/104/4 40/81/4 27/105/4
f 45/107/4 26/189/4 43/108/4
f 30/109/4 67/36/4 42/35/4
f 49/111/4 48/103/4 83/112/4
f 11/113/4 72/190/4 71/114/4
f 30/72/2 41/191/2 65/116/2
f 11/28/3 2/156/3 39/53/3
f 51/119/4 50/192/4 88/120/4
f 64/193/6 35/132/6 63/194/6
f 63/194/6 23/75/6 34/195/6
f 34/195/6 33/196/6 60/104/6
f 62/122/6 61/197/6 46/198/6
f 34/195/6 60/104/6 62/122/6
f 64/193/6 63/194/6 34/195/6
f 66/199/6 31/37/6 64/193/6
f 42/124/6 67/200/6 65/201/6
f 65/201/6 66/199/6 64/193/6
f 64/193/6 34/195/6 62/122/6
f 62/122/6 46/198/6 68/202/6
f 68/202/6 69/203/6 3/123/6
f 3/123/6 9/204/6 70/205/6
f 42/124/6 65/201/6 64/193/6
f 3/123/6 70/205/6 42/124/6
f 62/122/6 68/202/6 3/123/6
f 42/124/6 64/193/6 62/122/6
f 21/103/3 22/96/3 91/119/3
f 5/125/4 6/206/4 59/126/4
f 1/128/1 61/24/1 62/129/1
