# MagicaVoxel @ Ephtracy

# group
o 

# material
mtllib Calendar2.mtl
usemtl palette

# normals
vn -1 0 0
vn 1 0 0
vn 0 0 1
vn 0 0 -1
vn 0 -1 0
vn 0 1 0

# texcoords
vt 0.470703 0.5
vt 0.501953 0.5
vt 0.505859 0.5
vt 0.533203 0.5
vt 0.537109 0.5
vt 0.541016 0.5
vt 0.595703 0.5
vt 0.599609 0.5
vt 0.603516 0.5
vt 0.689453 0.5
vt 0.720703 0.5
vt 0.751953 0.5
vt 0.759766 0.5
vt 0.783203 0.5
vt 0.876953 0.5
vt 0.974609 0.5

# verts
v -0.4 0.6 -0.1
v -0.4 0.6 -0.2
v -0.4 0.7 -0.1
v -0.4 0.7 -0.2
v -0.4 0.8 -0.1
v -0.4 0.8 -0.2
v -0.4 0.9 -0.1
v -0.4 0.9 -0.2
v -0.4 1.1 -0.1
v -0.4 1.1 -0.2
v -0.4 1.4 -0.1
v -0.4 1.4 -0.2
v -0.4 1.5 -0.1
v -0.4 1.5 -0.2
v -0.4 1.6 0
v -0.4 1.6 -0.1
v -0.4 1.7 0
v -0.4 1.7 -0.1
v -0.4 1.8 -0.1
v -0.4 1.8 -0.2
v -0.3 0.6 0.1
v -0.3 0.6 -0.1
v -0.3 0.7 0.1
v -0.3 0.7 0
v -0.3 0.7 -0.1
v -0.3 0.8 -0.1
v -0.3 0.9 -0.1
v -0.3 1.1 -0.1
v -0.3 1.4 -0.1
v -0.3 1.5 -0.1
v -0.3 1.6 0
v -0.3 1.6 -0.1
v -0.3 1.7 0.1
v -0.3 1.7 0
v -0.3 1.7 -0.1
v -0.3 1.8 0.1
v -0.3 1.8 -0.1
v 0.3 0.6 0.1
v 0.3 0.6 -0.1
v 0.3 0.7 0.1
v 0.3 0.7 0
v 0.3 0.8 -0.1
v 0.3 0.9 -0.1
v 0.3 1.1 -0.1
v 0.3 1.3 -0.1
v 0.3 1.4 -0.1
v 0.3 1.5 -0.1
v 0.3 1.6 0
v 0.3 1.6 -0.1
v 0.3 1.7 0.1
v 0.3 1.7 0
v 0.3 1.7 -0.1
v 0.3 1.8 0.1
v 0.3 1.8 -0.1
v 0.4 0.6 -0.1
v 0.4 0.6 -0.2
v 0.4 0.8 -0.1
v 0.4 0.8 -0.2
v 0.4 0.9 -0.1
v 0.4 0.9 -0.2
v 0.4 1.1 -0.1
v 0.4 1.1 -0.2
v 0.4 1.3 -0.1
v 0.4 1.3 -0.2
v 0.4 1.4 -0.1
v 0.4 1.4 -0.2
v 0.4 1.5 -0.1
v 0.4 1.5 -0.2
v 0.4 1.6 0
v 0.4 1.6 -0.1
v 0.4 1.7 0
v 0.4 1.7 -0.1
v 0.4 1.7 -0.2
v 0.4 1.8 -0.1
v 0.4 1.8 -0.2
v -0.3 0.6 0.1
v -0.3 0.7 0.1
v -0.3 1.7 0.1
v -0.3 1.8 0.1
v -0.2 1.7 0.1
v -0.2 1.8 0.1
v 0.2 1.7 0.1
v 0.2 1.8 0.1
v 0.3 0.6 0.1
v 0.3 0.7 0.1
v 0.3 1.7 0.1
v 0.3 1.8 0.1
v -0.4 1.6 0
v -0.4 1.7 0
v -0.3 0.7 0
v -0.3 1.6 0
v -0.3 1.7 0
v -0.2 0.7 0
v -0.2 0.9 0
v -0.2 1 0
v -0.2 1.1 0
v -0.2 1.2 0
v -0.2 1.3 0
v -0.2 1.5 0
v -0.2 1.6 0
v -0.2 1.7 0
v -0.1 0.8 0
v -0.1 0.9 0
v -0.1 1 0
v -0.1 1.1 0
v -0.1 1.2 0
v -0.1 1.3 0
v -0.1 1.4 0
v -0.1 1.5 0
v -0.1 1.6 0
v 0 0.7 0
v 0 0.8 0
v 0 1 0
v 0 1.1 0
v 0 1.3 0
v 0.1 0.8 0
v 0.1 0.9 0
v 0.1 1.1 0
v 0.1 1.3 0
v 0.1 1.5 0
v 0.1 1.6 0
v 0.2 0.7 0
v 0.2 0.9 0
v 0.2 1 0
v 0.2 1.4 0
v 0.2 1.5 0
v 0.2 1.6 0
v 0.2 1.7 0
v 0.3 0.7 0
v 0.3 1.6 0
v 0.3 1.7 0
v 0.4 1.6 0
v 0.4 1.7 0
v -0.4 0.6 -0.1
v -0.4 0.7 -0.1
v -0.4 0.8 -0.1
v -0.4 0.9 -0.1
v -0.4 1.1 -0.1
v -0.4 1.4 -0.1
v -0.4 1.5 -0.1
v -0.4 1.6 -0.1
v -0.4 1.7 -0.1
v -0.4 1.8 -0.1
v -0.3 0.6 -0.1
v -0.3 0.7 -0.1
v -0.3 0.8 -0.1
v -0.3 0.9 -0.1
v -0.3 1.1 -0.1
v -0.3 1.4 -0.1
v -0.3 1.5 -0.1
v -0.3 1.6 -0.1
v -0.3 1.7 -0.1
v -0.3 1.8 -0.1
v 0.3 0.6 -0.1
v 0.3 0.8 -0.1
v 0.3 0.9 -0.1
v 0.3 1.1 -0.1
v 0.3 1.3 -0.1
v 0.3 1.4 -0.1
v 0.3 1.5 -0.1
v 0.3 1.6 -0.1
v 0.3 1.7 -0.1
v 0.3 1.8 -0.1
v 0.4 0.6 -0.1
v 0.4 0.8 -0.1
v 0.4 0.9 -0.1
v 0.4 1.1 -0.1
v 0.4 1.3 -0.1
v 0.4 1.4 -0.1
v 0.4 1.5 -0.1
v 0.4 1.6 -0.1
v 0.4 1.7 -0.1
v 0.4 1.8 -0.1
v -0.4 0.6 -0.2
v -0.4 0.7 -0.2
v -0.4 0.8 -0.2
v -0.4 0.9 -0.2
v -0.4 1.1 -0.2
v -0.4 1.4 -0.2
v -0.4 1.5 -0.2
v -0.4 1.8 -0.2
v -0.3 0.6 -0.2
v -0.3 0.7 -0.2
v -0.3 0.8 -0.2
v -0.3 0.9 -0.2
v -0.3 1 -0.2
v -0.3 1.1 -0.2
v -0.3 1.2 -0.2
v -0.3 1.4 -0.2
v -0.3 1.5 -0.2
v -0.3 1.6 -0.2
v -0.3 1.7 -0.2
v -0.2 0.7 -0.2
v -0.2 0.8 -0.2
v -0.2 0.9 -0.2
v -0.2 1.2 -0.2
v -0.2 1.3 -0.2
v -0.1 1 -0.2
v -0.1 1.1 -0.2
v -0.1 1.2 -0.2
v -0.1 1.3 -0.2
v -0.1 1.4 -0.2
v -0.1 1.6 -0.2
v -0.1 1.7 -0.2
v 0 1.1 -0.2
v 0 1.2 -0.2
v 0 1.4 -0.2
v 0 1.6 -0.2
v 0 1.7 -0.2
v 0 1.8 -0.2
v 0.1 0.8 -0.2
v 0.1 1.3 -0.2
v 0.1 1.4 -0.2
v 0.1 1.5 -0.2
v 0.1 1.7 -0.2
v 0.1 1.8 -0.2
v 0.2 0.8 -0.2
v 0.2 0.9 -0.2
v 0.2 1.2 -0.2
v 0.2 1.3 -0.2
v 0.2 1.5 -0.2
v 0.2 1.6 -0.2
v 0.3 0.6 -0.2
v 0.3 0.8 -0.2
v 0.3 0.9 -0.2
v 0.3 1.1 -0.2
v 0.3 1.2 -0.2
v 0.3 1.3 -0.2
v 0.3 1.4 -0.2
v 0.3 1.5 -0.2
v 0.3 1.6 -0.2
v 0.3 1.7 -0.2
v 0.3 1.8 -0.2
v 0.4 0.6 -0.2
v 0.4 0.8 -0.2
v 0.4 0.9 -0.2
v 0.4 1.1 -0.2
v 0.4 1.3 -0.2
v 0.4 1.4 -0.2
v 0.4 1.5 -0.2
v 0.4 1.7 -0.2
v 0.4 1.8 -0.2
v -0.3 0.6 0.1
v 0.3 0.6 0.1
v -0.4 0.6 -0.1
v -0.3 0.6 -0.1
v 0.3 0.6 -0.1
v 0.4 0.6 -0.1
v -0.4 0.6 -0.2
v -0.3 0.6 -0.2
v 0.3 0.6 -0.2
v 0.4 0.6 -0.2
v -0.4 1.6 0
v -0.3 1.6 0
v 0.3 1.6 0
v 0.4 1.6 0
v -0.4 1.6 -0.1
v -0.3 1.6 -0.1
v 0.3 1.6 -0.1
v 0.4 1.6 -0.1
v -0.3 1.7 0.1
v -0.2 1.7 0.1
v 0.2 1.7 0.1
v 0.3 1.7 0.1
v -0.3 1.7 0
v -0.2 1.7 0
v 0.2 1.7 0
v 0.3 1.7 0
v -0.3 0.7 0.1
v 0.3 0.7 0.1
v -0.3 0.7 0
v -0.2 0.7 0
v 0 0.7 0
v 0.2 0.7 0
v 0.3 0.7 0
v -0.4 1.7 0
v -0.3 1.7 0
v 0.3 1.7 0
v 0.4 1.7 0
v -0.4 1.7 -0.1
v -0.3 1.7 -0.1
v 0.3 1.7 -0.1
v 0.4 1.7 -0.1
v -0.3 1.8 0.1
v -0.2 1.8 0.1
v 0.2 1.8 0.1
v 0.3 1.8 0.1
v -0.2 1.8 0
v 0.2 1.8 0
v -0.4 1.8 -0.1
v -0.3 1.8 -0.1
v 0 1.8 -0.1
v 0.1 1.8 -0.1
v 0.3 1.8 -0.1
v 0.4 1.8 -0.1
v -0.4 1.8 -0.2
v 0 1.8 -0.2
v 0.1 1.8 -0.2
v 0.3 1.8 -0.2
v 0.4 1.8 -0.2

# faces
f 3/1/1 2/1/1 1/1/1
f 4/1/1 2/1/1 3/1/1
f 5/12/1 4/12/1 3/12/1
f 6/12/1 4/12/1 5/12/1
f 7/1/1 6/1/1 5/1/1
f 8/1/1 6/1/1 7/1/1
f 9/15/1 8/15/1 7/15/1
f 10/15/1 8/15/1 9/15/1
f 11/1/1 10/1/1 9/1/1
f 12/1/1 10/1/1 11/1/1
f 13/12/1 12/12/1 11/12/1
f 14/12/1 12/12/1 13/12/1
f 16/7/1 14/7/1 13/7/1
f 17/2/1 16/2/1 15/2/1
f 18/7/1 14/7/1 16/7/1
f 18/2/1 16/2/1 17/2/1
f 19/7/1 14/7/1 18/7/1
f 20/7/1 14/7/1 19/7/1
f 23/4/1 22/4/1 21/4/1
f 24/4/1 22/4/1 23/4/1
f 25/4/1 22/4/1 24/4/1
f 26/4/1 25/4/1 24/4/1
f 27/4/1 26/4/1 24/4/1
f 28/4/1 27/4/1 24/4/1
f 29/4/1 28/4/1 24/4/1
f 30/4/1 29/4/1 24/4/1
f 31/4/1 30/4/1 24/4/1
f 32/4/1 30/4/1 31/4/1
f 36/4/1 34/4/1 33/4/1
f 36/4/1 35/4/1 34/4/1
f 37/4/1 35/4/1 36/4/1
f 38/4/2 39/4/2 40/4/2
f 40/4/2 39/4/2 41/4/2
f 41/4/2 39/4/2 42/4/2
f 41/4/2 42/4/2 43/4/2
f 41/4/2 43/4/2 44/4/2
f 41/4/2 44/4/2 45/4/2
f 41/4/2 45/4/2 46/4/2
f 41/4/2 46/4/2 47/4/2
f 41/4/2 47/4/2 48/4/2
f 48/4/2 47/4/2 49/4/2
f 50/4/2 51/4/2 53/4/2
f 51/4/2 52/4/2 53/4/2
f 53/4/2 52/4/2 54/4/2
f 55/10/2 56/10/2 57/10/2
f 57/10/2 56/10/2 58/10/2
f 57/11/2 58/11/2 59/11/2
f 59/11/2 58/11/2 60/11/2
f 59/14/2 60/14/2 61/14/2
f 61/14/2 60/14/2 62/14/2
f 61/15/2 62/15/2 63/15/2
f 63/15/2 62/15/2 64/15/2
f 63/1/2 64/1/2 65/1/2
f 65/1/2 64/1/2 66/1/2
f 65/9/2 66/9/2 67/9/2
f 67/9/2 66/9/2 68/9/2
f 67/13/2 68/13/2 70/13/2
f 69/2/2 70/2/2 71/2/2
f 70/13/2 68/13/2 72/13/2
f 71/2/2 70/2/2 72/2/2
f 72/13/2 68/13/2 73/13/2
f 72/9/2 73/9/2 74/9/2
f 74/9/2 73/9/2 75/9/2
f 80/4/3 79/4/3 78/4/3
f 81/4/3 79/4/3 80/4/3
f 82/6/3 81/6/3 80/6/3
f 83/6/3 81/6/3 82/6/3
f 84/4/3 77/4/3 76/4/3
f 85/4/3 77/4/3 84/4/3
f 86/4/3 83/4/3 82/4/3
f 87/4/3 83/4/3 86/4/3
f 91/2/3 89/2/3 88/2/3
f 92/2/3 89/2/3 91/2/3
f 93/4/3 91/4/3 90/4/3
f 94/4/3 91/4/3 93/4/3
f 95/4/3 91/4/3 94/4/3
f 96/4/3 91/4/3 95/4/3
f 97/4/3 91/4/3 96/4/3
f 98/4/3 91/4/3 97/4/3
f 99/4/3 91/4/3 98/4/3
f 100/2/3 92/2/3 91/2/3
f 100/4/3 91/4/3 99/4/3
f 101/2/3 92/2/3 100/2/3
f 102/3/3 94/3/3 93/3/3
f 103/4/3 95/4/3 94/4/3
f 103/3/3 94/3/3 102/3/3
f 104/5/3 96/5/3 95/5/3
f 104/4/3 95/4/3 103/4/3
f 105/3/3 97/3/3 96/3/3
f 105/5/3 96/5/3 104/5/3
f 106/5/3 98/5/3 97/5/3
f 106/3/3 97/3/3 105/3/3
f 107/3/3 99/3/3 98/3/3
f 107/5/3 98/5/3 106/5/3
f 108/3/3 99/3/3 107/3/3
f 109/6/3 100/6/3 99/6/3
f 109/3/3 99/3/3 108/3/3
f 110/2/3 101/2/3 100/2/3
f 110/6/3 100/6/3 109/6/3
f 111/3/3 102/3/3 93/3/3
f 112/4/3 103/4/3 102/4/3
f 112/3/3 102/3/3 111/3/3
f 112/4/3 104/4/3 103/4/3
f 113/15/3 105/15/3 104/15/3
f 113/4/3 104/4/3 112/4/3
f 114/16/3 106/16/3 105/16/3
f 114/15/3 105/15/3 113/15/3
f 114/16/3 107/16/3 106/16/3
f 115/5/3 108/5/3 107/5/3
f 115/16/3 107/16/3 114/16/3
f 116/4/3 113/4/3 112/4/3
f 116/5/3 112/5/3 111/5/3
f 117/4/3 113/4/3 116/4/3
f 118/4/3 115/4/3 114/4/3
f 118/5/3 114/5/3 113/5/3
f 119/5/3 108/5/3 115/5/3
f 119/4/3 115/4/3 118/4/3
f 120/4/3 110/4/3 109/4/3
f 120/3/3 109/3/3 108/3/3
f 121/2/3 101/2/3 110/2/3
f 121/4/3 110/4/3 120/4/3
f 122/5/3 117/5/3 116/5/3
f 122/5/3 116/5/3 111/5/3
f 123/4/3 113/4/3 117/4/3
f 123/5/3 117/5/3 122/5/3
f 124/5/3 118/5/3 113/5/3
f 124/4/3 113/4/3 123/4/3
f 124/5/3 119/5/3 118/5/3
f 125/3/3 120/3/3 108/3/3
f 125/5/3 119/5/3 124/5/3
f 125/5/3 108/5/3 119/5/3
f 126/6/3 121/6/3 120/6/3
f 126/3/3 120/3/3 125/3/3
f 127/2/3 101/2/3 121/2/3
f 127/6/3 121/6/3 126/6/3
f 128/2/3 101/2/3 127/2/3
f 129/4/3 123/4/3 122/4/3
f 129/4/3 124/4/3 123/4/3
f 129/4/3 125/4/3 124/4/3
f 129/4/3 127/4/3 126/4/3
f 129/4/3 126/4/3 125/4/3
f 130/2/3 128/2/3 127/2/3
f 130/4/3 127/4/3 129/4/3
f 131/2/3 128/2/3 130/2/3
f 132/2/3 131/2/3 130/2/3
f 133/2/3 131/2/3 132/2/3
f 144/1/3 135/1/3 134/1/3
f 145/12/3 136/12/3 135/12/3
f 145/1/3 135/1/3 144/1/3
f 146/1/3 137/1/3 136/1/3
f 146/12/3 136/12/3 145/12/3
f 147/15/3 138/15/3 137/15/3
f 147/1/3 137/1/3 146/1/3
f 148/1/3 139/1/3 138/1/3
f 148/15/3 138/15/3 147/15/3
f 149/12/3 140/12/3 139/12/3
f 149/1/3 139/1/3 148/1/3
f 150/7/3 141/7/3 140/7/3
f 150/12/3 140/12/3 149/12/3
f 151/7/3 141/7/3 150/7/3
f 152/7/3 143/7/3 142/7/3
f 153/7/3 143/7/3 152/7/3
f 164/10/3 155/10/3 154/10/3
f 165/11/3 156/11/3 155/11/3
f 165/10/3 155/10/3 164/10/3
f 166/14/3 157/14/3 156/14/3
f 166/11/3 156/11/3 165/11/3
f 167/15/3 158/15/3 157/15/3
f 167/14/3 157/14/3 166/14/3
f 168/1/3 159/1/3 158/1/3
f 168/15/3 158/15/3 167/15/3
f 169/9/3 160/9/3 159/9/3
f 169/1/3 159/1/3 168/1/3
f 170/13/3 161/13/3 160/13/3
f 170/9/3 160/9/3 169/9/3
f 171/13/3 161/13/3 170/13/3
f 172/9/3 163/9/3 162/9/3
f 173/9/3 163/9/3 172/9/3
f 174/1/4 175/1/4 182/1/4
f 175/12/4 176/12/4 183/12/4
f 182/1/4 175/1/4 183/1/4
f 176/1/4 177/1/4 184/1/4
f 183/12/4 176/12/4 184/12/4
f 177/15/4 178/15/4 185/15/4
f 184/1/4 177/1/4 185/1/4
f 185/15/4 178/15/4 186/15/4
f 178/1/4 179/1/4 187/1/4
f 186/15/4 178/15/4 187/15/4
f 187/1/4 179/1/4 188/1/4
f 179/12/4 180/12/4 189/12/4
f 188/1/4 179/1/4 189/1/4
f 180/7/4 181/7/4 190/7/4
f 189/12/4 180/12/4 190/12/4
f 190/7/4 181/7/4 191/7/4
f 191/7/4 181/7/4 192/7/4
f 182/15/4 183/15/4 193/15/4
f 183/12/4 184/12/4 193/12/4
f 184/7/4 185/7/4 194/7/4
f 193/12/4 184/12/4 194/12/4
f 185/15/4 186/15/4 195/15/4
f 194/7/4 185/7/4 195/7/4
f 188/15/4 189/15/4 196/15/4
f 187/11/4 188/11/4 196/11/4
f 186/11/4 187/11/4 196/11/4
f 196/15/4 189/15/4 197/15/4
f 195/15/4 186/15/4 198/15/4
f 193/15/4 194/15/4 198/15/4
f 196/11/4 197/11/4 198/11/4
f 186/11/4 196/11/4 198/11/4
f 194/15/4 195/15/4 198/15/4
f 198/11/4 197/11/4 199/11/4
f 199/11/4 197/11/4 200/11/4
f 197/15/4 189/15/4 201/15/4
f 200/11/4 197/11/4 201/11/4
f 189/7/4 190/7/4 202/7/4
f 201/15/4 189/15/4 202/15/4
f 190/7/4 191/7/4 202/7/4
f 191/15/4 192/15/4 203/15/4
f 202/7/4 191/7/4 203/7/4
f 192/7/4 181/7/4 204/7/4
f 203/15/4 192/15/4 204/15/4
f 199/11/4 200/11/4 205/11/4
f 198/15/4 199/15/4 205/15/4
f 201/15/4 202/15/4 206/15/4
f 205/11/4 200/11/4 206/11/4
f 200/15/4 201/15/4 206/15/4
f 202/8/4 203/8/4 207/8/4
f 206/15/4 202/15/4 207/15/4
f 203/7/4 204/7/4 208/7/4
f 207/8/4 203/8/4 208/8/4
f 204/7/4 181/7/4 209/7/4
f 208/7/4 204/7/4 209/7/4
f 209/7/4 181/7/4 210/7/4
f 205/15/4 206/15/4 211/15/4
f 198/15/4 205/15/4 211/15/4
f 193/15/4 198/15/4 211/15/4
f 206/15/4 207/15/4 211/15/4
f 211/15/4 207/15/4 212/15/4
f 207/13/4 208/13/4 213/13/4
f 212/15/4 207/15/4 213/15/4
f 208/13/4 209/13/4 213/13/4
f 213/13/4 209/13/4 214/13/4
f 209/8/4 210/8/4 215/8/4
f 214/13/4 209/13/4 215/13/4
f 215/8/4 210/8/4 216/8/4
f 211/14/4 212/14/4 217/14/4
f 193/15/4 211/15/4 217/15/4
f 217/14/4 212/14/4 218/14/4
f 218/14/4 212/14/4 219/14/4
f 212/15/4 213/15/4 220/15/4
f 219/14/4 212/14/4 220/14/4
f 213/9/4 214/9/4 221/9/4
f 215/13/4 216/13/4 221/13/4
f 214/13/4 215/13/4 221/13/4
f 221/13/4 216/13/4 222/13/4
f 182/15/4 193/15/4 223/15/4
f 193/15/4 217/15/4 223/15/4
f 217/10/4 218/10/4 224/10/4
f 223/15/4 217/15/4 224/15/4
f 218/14/4 219/14/4 225/14/4
f 224/10/4 218/10/4 225/10/4
f 225/14/4 219/14/4 226/14/4
f 219/15/4 220/15/4 227/15/4
f 226/14/4 219/14/4 227/14/4
f 220/15/4 213/15/4 228/15/4
f 227/15/4 220/15/4 228/15/4
f 221/9/4 222/9/4 229/9/4
f 228/15/4 213/15/4 229/15/4
f 213/9/4 221/9/4 229/9/4
f 229/9/4 222/9/4 230/9/4
f 222/13/4 216/13/4 231/13/4
f 230/9/4 222/9/4 231/9/4
f 231/13/4 216/13/4 232/13/4
f 232/13/4 216/13/4 233/13/4
f 223/10/4 224/10/4 234/10/4
f 224/11/4 225/11/4 235/11/4
f 234/10/4 224/10/4 235/10/4
f 225/14/4 226/14/4 236/14/4
f 235/11/4 225/11/4 236/11/4
f 226/15/4 227/15/4 237/15/4
f 236/14/4 226/14/4 237/14/4
f 227/15/4 228/15/4 237/15/4
f 228/1/4 229/1/4 238/1/4
f 237/15/4 228/15/4 238/15/4
f 229/9/4 230/9/4 239/9/4
f 238/1/4 229/1/4 239/1/4
f 230/13/4 231/13/4 240/13/4
f 239/9/4 230/9/4 240/9/4
f 231/13/4 232/13/4 240/13/4
f 232/9/4 233/9/4 241/9/4
f 240/13/4 232/13/4 241/13/4
f 241/9/4 233/9/4 242/9/4
f 246/4/5 244/4/5 243/4/5
f 247/4/5 244/4/5 246/4/5
f 249/1/5 246/1/5 245/1/5
f 250/15/5 247/15/5 246/15/5
f 250/1/5 246/1/5 249/1/5
f 251/10/5 248/10/5 247/10/5
f 251/15/5 247/15/5 250/15/5
f 252/10/5 248/10/5 251/10/5
f 257/2/5 254/2/5 253/2/5
f 258/2/5 254/2/5 257/2/5
f 259/2/5 256/2/5 255/2/5
f 260/2/5 256/2/5 259/2/5
f 265/4/5 262/4/5 261/4/5
f 266/6/5 263/6/5 262/6/5
f 266/4/5 262/4/5 265/4/5
f 267/4/5 264/4/5 263/4/5
f 267/6/5 263/6/5 266/6/5
f 268/4/5 264/4/5 267/4/5
f 269/4/6 270/4/6 271/4/6
f 271/4/6 270/4/6 272/4/6
f 272/4/6 270/4/6 273/4/6
f 273/4/6 270/4/6 274/4/6
f 274/4/6 270/4/6 275/4/6
f 276/2/6 277/2/6 280/2/6
f 280/2/6 277/2/6 281/2/6
f 278/2/6 279/2/6 282/2/6
f 282/2/6 279/2/6 283/2/6
f 284/4/6 285/4/6 288/4/6
f 285/6/6 286/6/6 288/6/6
f 286/4/6 287/4/6 289/4/6
f 288/6/6 286/6/6 289/6/6
f 284/4/6 288/4/6 291/4/6
f 288/4/6 289/4/6 291/4/6
f 291/4/6 289/4/6 292/4/6
f 292/4/6 289/4/6 293/4/6
f 289/4/6 287/4/6 294/4/6
f 293/4/6 289/4/6 294/4/6
f 290/7/6 291/7/6 296/7/6
f 291/7/6 292/7/6 296/7/6
f 292/8/6 293/8/6 297/8/6
f 296/7/6 292/7/6 297/7/6
f 293/13/6 294/13/6 298/13/6
f 297/8/6 293/8/6 298/8/6
f 294/9/6 295/9/6 299/9/6
f 298/13/6 294/13/6 299/13/6
f 299/9/6 295/9/6 300/9/6
