# MagicaVoxel @ Ephtracy

# group
o 

# material
mtllib DrawingBoard.mtl
usemtl palette

# normals
vn -1 0 0
vn 1 0 0
vn 0 0 1
vn 0 0 -1
vn 0 -1 0
vn 0 1 0

# texcoords
vt 0.283203 0.5
vt 0.314453 0.5
vt 0.318359 0.5
vt 0.384766 0.5
vt 0.447266 0.5

# verts
v -1 0 0.1
v -1 0 -0.1
v -1 0.7 0.1
v -1 0.7 0
v -1 1 0.1
v -1 1 0
v -1 1.2 0.1
v -1 1.2 0
v -1 1.6 0.1
v -1 1.6 0
v -1 1.6 -0.1
v 0.9 0.1 0.1
v 0.9 0.1 0
v 0.9 0.2 0
v 0.9 0.5 0.1
v 0.9 0.5 0
v 0.9 0.9 0.1
v 0.9 0.9 0
v 0.9 1.1 0.1
v 0.9 1.1 0
v 0.9 1.3 0
v 0.9 1.5 0.1
v 0.9 1.5 0
v -0.9 0.1 0.1
v -0.9 0.1 0
v -0.9 0.3 0
v -0.9 0.7 0.1
v -0.9 0.7 0
v -0.9 0.9 0
v -0.9 1 0.1
v -0.9 1 0
v -0.9 1.1 0
v -0.9 1.2 0.1
v -0.9 1.2 0
v -0.9 1.5 0.1
v -0.9 1.5 0
v 1 0 0.1
v 1 0 -0.1
v 1 0.5 0.1
v 1 0.5 0
v 1 0.9 0.1
v 1 0.9 0
v 1 1.1 0.1
v 1 1.1 0
v 1 1.6 0.1
v 1 1.6 0
v 1 1.6 -0.1
v -1 0 0.1
v -1 0.7 0.1
v -1 1 0.1
v -1 1.2 0.1
v -1 1.6 0.1
v -0.9 0.1 0.1
v -0.9 0.7 0.1
v -0.9 1 0.1
v -0.9 1.2 0.1
v -0.9 1.5 0.1
v -0.6 1.5 0.1
v -0.6 1.6 0.1
v -0.4 1.5 0.1
v -0.4 1.6 0.1
v 0.3 1.5 0.1
v 0.3 1.6 0.1
v 0.7 1.5 0.1
v 0.7 1.6 0.1
v 0.9 0.1 0.1
v 0.9 0.5 0.1
v 0.9 0.9 0.1
v 0.9 1.1 0.1
v 0.9 1.5 0.1
v 1 0 0.1
v 1 0.5 0.1
v 1 0.9 0.1
v 1 1.1 0.1
v 1 1.6 0.1
v -0.9 0.1 0
v -0.9 0.3 0
v -0.9 0.7 0
v -0.9 0.9 0
v -0.9 1 0
v -0.9 1.1 0
v -0.9 1.2 0
v -0.9 1.5 0
v -0.8 0.3 0
v -0.8 0.9 0
v -0.8 1.1 0
v -0.8 1.4 0
v -0.7 0.6 0
v -0.7 1.1 0
v -0.7 1.4 0
v -0.7 1.5 0
v -0.6 0.6 0
v -0.6 0.7 0
v -0.6 0.9 0
v -0.6 1.1 0
v -0.6 1.2 0
v -0.6 1.5 0
v -0.5 0.7 0
v -0.5 0.9 0
v -0.5 1.2 0
v -0.5 1.5 0
v -0.4 1.4 0
v -0.4 1.5 0
v -0.3 0.5 0
v -0.3 0.8 0
v -0.3 1.4 0
v -0.3 1.5 0
v -0.2 0.5 0
v -0.2 0.6 0
v -0.2 1.1 0
v -0.2 1.5 0
v -0.1 0.8 0
v -0.1 1 0
v -0.1 1.1 0
v -0.1 1.3 0
v 0 0.6 0
v 0 1 0
v 0 1.3 0
v 0 1.5 0
v 0.2 0.6 0
v 0.2 1 0
v 0.2 1.2 0
v 0.2 1.5 0
v 0.3 0.4 0
v 0.3 0.6 0
v 0.3 0.8 0
v 0.3 1 0
v 0.3 1.2 0
v 0.3 1.4 0
v 0.3 1.5 0
v 0.4 0.4 0
v 0.4 0.6 0
v 0.4 1.4 0
v 0.4 1.5 0
v 0.5 0.6 0
v 0.5 0.8 0
v 0.5 1.4 0
v 0.5 1.5 0
v 0.6 1.4 0
v 0.6 1.5 0
v 0.7 0.6 0
v 0.7 1 0
v 0.7 1.2 0
v 0.7 1.5 0
v 0.8 0.2 0
v 0.8 0.5 0
v 0.8 0.6 0
v 0.8 1 0
v 0.8 1.2 0
v 0.8 1.3 0
v 0.9 0.1 0
v 0.9 0.2 0
v 0.9 0.5 0
v 0.9 0.9 0
v 0.9 1.1 0
v 0.9 1.3 0
v 0.9 1.5 0
v -1 0 -0.1
v -1 1.6 -0.1
v -0.9 0.1 -0.1
v -0.9 0.3 -0.1
v -0.9 0.9 -0.1
v -0.9 1.1 -0.1
v -0.9 1.5 -0.1
v -0.8 0.3 -0.1
v -0.8 0.9 -0.1
v -0.8 1.1 -0.1
v -0.8 1.4 -0.1
v -0.7 0.6 -0.1
v -0.7 1.1 -0.1
v -0.7 1.4 -0.1
v -0.7 1.5 -0.1
v -0.6 0.6 -0.1
v -0.6 0.7 -0.1
v -0.6 0.9 -0.1
v -0.6 1.1 -0.1
v -0.6 1.2 -0.1
v -0.6 1.5 -0.1
v -0.5 0.7 -0.1
v -0.5 0.9 -0.1
v -0.5 1.2 -0.1
v -0.5 1.5 -0.1
v -0.4 1.4 -0.1
v -0.4 1.5 -0.1
v -0.3 0.5 -0.1
v -0.3 0.8 -0.1
v -0.3 1.4 -0.1
v -0.3 1.5 -0.1
v -0.2 0.5 -0.1
v -0.2 0.6 -0.1
v -0.2 1.1 -0.1
v -0.2 1.5 -0.1
v -0.1 0.8 -0.1
v -0.1 1 -0.1
v -0.1 1.1 -0.1
v -0.1 1.3 -0.1
v 0 0.6 -0.1
v 0 1 -0.1
v 0 1.3 -0.1
v 0 1.5 -0.1
v 0.2 0.6 -0.1
v 0.2 1 -0.1
v 0.2 1.2 -0.1
v 0.2 1.5 -0.1
v 0.3 0.4 -0.1
v 0.3 0.6 -0.1
v 0.3 0.8 -0.1
v 0.3 1 -0.1
v 0.3 1.2 -0.1
v 0.3 1.4 -0.1
v 0.4 0.4 -0.1
v 0.4 0.6 -0.1
v 0.4 1.4 -0.1
v 0.4 1.5 -0.1
v 0.5 0.6 -0.1
v 0.5 0.8 -0.1
v 0.5 1.4 -0.1
v 0.5 1.5 -0.1
v 0.6 1.4 -0.1
v 0.6 1.5 -0.1
v 0.7 0.6 -0.1
v 0.7 1 -0.1
v 0.7 1.2 -0.1
v 0.7 1.5 -0.1
v 0.8 0.2 -0.1
v 0.8 0.5 -0.1
v 0.8 0.6 -0.1
v 0.8 1 -0.1
v 0.8 1.2 -0.1
v 0.8 1.3 -0.1
v 0.9 0.1 -0.1
v 0.9 0.2 -0.1
v 0.9 0.5 -0.1
v 0.9 1.3 -0.1
v 0.9 1.5 -0.1
v 1 0 -0.1
v 1 1.6 -0.1
v -1 0 0.1
v 1 0 0.1
v -1 0 -0.1
v 1 0 -0.1
v -0.9 1.5 0.1
v -0.6 1.5 0.1
v -0.4 1.5 0.1
v 0.3 1.5 0.1
v 0.7 1.5 0.1
v 0.9 1.5 0.1
v -0.9 1.5 0
v -0.7 1.5 0
v -0.6 1.5 0
v -0.5 1.5 0
v -0.4 1.5 0
v -0.3 1.5 0
v -0.2 1.5 0
v 0 1.5 0
v 0.2 1.5 0
v 0.3 1.5 0
v 0.4 1.5 0
v 0.5 1.5 0
v 0.6 1.5 0
v 0.7 1.5 0
v 0.9 1.5 0
v -0.9 0.1 0.1
v 0.9 0.1 0.1
v -0.9 0.1 0
v 0.9 0.1 0
v -1 1.6 0.1
v -0.6 1.6 0.1
v -0.4 1.6 0.1
v 0.3 1.6 0.1
v 0.7 1.6 0.1
v 1 1.6 0.1
v -1 1.6 0
v -0.6 1.6 0
v -0.4 1.6 0
v 0.3 1.6 0
v 0.7 1.6 0
v 1 1.6 0
v -1 1.6 -0.1
v 1 1.6 -0.1

# faces
f 3/4/1 2/4/1 1/4/1
f 4/4/1 2/4/1 3/4/1
f 5/3/1 4/3/1 3/3/1
f 6/4/1 2/4/1 4/4/1
f 6/3/1 4/3/1 5/3/1
f 7/5/1 6/5/1 5/5/1
f 8/4/1 2/4/1 6/4/1
f 8/5/1 6/5/1 7/5/1
f 9/3/1 8/3/1 7/3/1
f 10/4/1 2/4/1 8/4/1
f 10/3/1 8/3/1 9/3/1
f 11/4/1 2/4/1 10/4/1
f 14/4/1 13/4/1 12/4/1
f 15/4/1 14/4/1 12/4/1
f 16/4/1 14/4/1 15/4/1
f 17/3/1 16/3/1 15/3/1
f 18/3/1 16/3/1 17/3/1
f 19/4/1 18/4/1 17/4/1
f 20/4/1 18/4/1 19/4/1
f 21/3/1 20/3/1 19/3/1
f 22/3/1 21/3/1 19/3/1
f 23/3/1 21/3/1 22/3/1
f 24/4/2 25/4/2 26/4/2
f 24/4/2 26/4/2 27/4/2
f 27/4/2 26/4/2 28/4/2
f 27/3/2 28/3/2 29/3/2
f 27/3/2 29/3/2 30/3/2
f 30/3/2 29/3/2 31/3/2
f 30/5/2 31/5/2 32/5/2
f 30/5/2 32/5/2 33/5/2
f 33/5/2 32/5/2 34/5/2
f 33/3/2 34/3/2 35/3/2
f 35/3/2 34/3/2 36/3/2
f 37/4/2 38/4/2 39/4/2
f 39/4/2 38/4/2 40/4/2
f 39/3/2 40/3/2 41/3/2
f 40/4/2 38/4/2 42/4/2
f 41/3/2 40/3/2 42/3/2
f 41/4/2 42/4/2 43/4/2
f 42/4/2 38/4/2 44/4/2
f 43/4/2 42/4/2 44/4/2
f 43/3/2 44/3/2 45/3/2
f 44/4/2 38/4/2 46/4/2
f 45/3/2 44/3/2 46/3/2
f 46/4/2 38/4/2 47/4/2
f 53/4/3 49/4/3 48/4/3
f 54/3/3 50/3/3 49/3/3
f 54/4/3 49/4/3 53/4/3
f 55/5/3 51/5/3 50/5/3
f 55/3/3 50/3/3 54/3/3
f 56/3/3 52/3/3 51/3/3
f 56/5/3 51/5/3 55/5/3
f 57/3/3 52/3/3 56/3/3
f 58/3/3 52/3/3 57/3/3
f 59/3/3 52/3/3 58/3/3
f 60/4/3 59/4/3 58/4/3
f 61/4/3 59/4/3 60/4/3
f 62/3/3 61/3/3 60/3/3
f 63/3/3 61/3/3 62/3/3
f 64/4/3 63/4/3 62/4/3
f 65/4/3 63/4/3 64/4/3
f 66/4/3 53/4/3 48/4/3
f 70/3/3 65/3/3 64/3/3
f 71/4/3 66/4/3 48/4/3
f 71/4/3 67/4/3 66/4/3
f 72/3/3 68/3/3 67/3/3
f 72/4/3 67/4/3 71/4/3
f 73/4/3 69/4/3 68/4/3
f 73/3/3 68/3/3 72/3/3
f 74/3/3 70/3/3 69/3/3
f 74/4/3 69/4/3 73/4/3
f 75/3/3 65/3/3 70/3/3
f 75/3/3 70/3/3 74/3/3
f 84/2/3 77/2/3 76/2/3
f 84/1/3 78/1/3 77/1/3
f 84/1/3 79/1/3 78/1/3
f 85/2/3 81/2/3 80/2/3
f 85/1/3 79/1/3 84/1/3
f 85/2/3 80/2/3 79/2/3
f 86/1/3 83/1/3 82/1/3
f 86/2/3 81/2/3 85/2/3
f 86/1/3 82/1/3 81/1/3
f 87/1/3 83/1/3 86/1/3
f 88/2/3 85/2/3 84/2/3
f 88/2/3 86/2/3 85/2/3
f 88/2/3 87/2/3 86/2/3
f 89/2/3 87/2/3 88/2/3
f 90/1/3 83/1/3 87/1/3
f 90/2/3 87/2/3 89/2/3
f 91/1/3 83/1/3 90/1/3
f 92/1/3 89/1/3 88/1/3
f 92/2/3 88/2/3 84/2/3
f 93/1/3 89/1/3 92/1/3
f 94/1/3 89/1/3 93/1/3
f 95/2/3 91/2/3 90/2/3
f 95/1/3 89/1/3 94/1/3
f 95/2/3 90/2/3 89/2/3
f 96/2/3 91/2/3 95/2/3
f 97/2/3 91/2/3 96/2/3
f 98/1/3 94/1/3 93/1/3
f 98/2/3 93/2/3 92/2/3
f 99/2/3 95/2/3 94/2/3
f 99/1/3 94/1/3 98/1/3
f 99/2/3 96/2/3 95/2/3
f 100/1/3 97/1/3 96/1/3
f 100/2/3 96/2/3 99/2/3
f 101/1/3 97/1/3 100/1/3
f 102/2/3 99/2/3 98/2/3
f 102/2/3 100/2/3 99/2/3
f 102/2/3 101/2/3 100/2/3
f 103/2/3 101/2/3 102/2/3
f 104/2/3 92/2/3 84/2/3
f 104/2/3 98/2/3 92/2/3
f 104/2/3 102/2/3 98/2/3
f 105/2/3 102/2/3 104/2/3
f 106/1/3 103/1/3 102/1/3
f 106/2/3 102/2/3 105/2/3
f 107/1/3 103/1/3 106/1/3
f 108/1/3 105/1/3 104/1/3
f 108/2/3 104/2/3 84/2/3
f 109/1/3 105/1/3 108/1/3
f 110/2/3 107/2/3 106/2/3
f 110/2/3 106/2/3 105/2/3
f 111/2/3 107/2/3 110/2/3
f 112/1/3 105/1/3 109/1/3
f 112/2/3 110/2/3 105/2/3
f 113/2/3 110/2/3 112/2/3
f 114/1/3 111/1/3 110/1/3
f 114/2/3 110/2/3 113/2/3
f 115/1/3 111/1/3 114/1/3
f 116/2/3 109/2/3 108/2/3
f 116/1/3 113/1/3 112/1/3
f 116/1/3 112/1/3 109/1/3
f 117/2/3 115/2/3 114/2/3
f 117/1/3 113/1/3 116/1/3
f 117/2/3 114/2/3 113/2/3
f 118/1/3 111/1/3 115/1/3
f 118/2/3 115/2/3 117/2/3
f 119/1/3 111/1/3 118/1/3
f 120/2/3 117/2/3 116/2/3
f 120/2/3 116/2/3 108/2/3
f 120/2/3 119/2/3 118/2/3
f 120/2/3 118/2/3 117/2/3
f 121/2/3 119/2/3 120/2/3
f 122/2/3 119/2/3 121/2/3
f 123/2/3 119/2/3 122/2/3
f 124/2/3 108/2/3 84/2/3
f 124/2/3 120/2/3 108/2/3
f 125/1/3 121/1/3 120/1/3
f 125/2/3 120/2/3 124/2/3
f 126/1/3 121/1/3 125/1/3
f 127/2/3 122/2/3 121/2/3
f 127/1/3 121/1/3 126/1/3
f 128/1/3 123/1/3 122/1/3
f 128/2/3 122/2/3 127/2/3
f 129/1/3 123/1/3 128/1/3
f 130/1/3 123/1/3 129/1/3
f 131/2/3 124/2/3 84/2/3
f 131/1/3 126/1/3 125/1/3
f 131/1/3 125/1/3 124/1/3
f 132/1/3 126/1/3 131/1/3
f 133/2/3 127/2/3 126/2/3
f 133/1/3 130/1/3 129/1/3
f 133/2/3 129/2/3 128/2/3
f 133/2/3 128/2/3 127/2/3
f 134/1/3 130/1/3 133/1/3
f 135/1/3 126/1/3 132/1/3
f 135/2/3 132/2/3 131/2/3
f 136/2/3 134/2/3 133/2/3
f 136/1/3 126/1/3 135/1/3
f 136/2/3 133/2/3 126/2/3
f 137/2/3 134/2/3 136/2/3
f 138/2/3 134/2/3 137/2/3
f 139/2/3 136/2/3 135/2/3
f 139/2/3 137/2/3 136/2/3
f 139/1/3 138/1/3 137/1/3
f 140/1/3 138/1/3 139/1/3
f 141/2/3 135/2/3 131/2/3
f 141/2/3 139/2/3 135/2/3
f 141/2/3 140/2/3 139/2/3
f 142/2/3 140/2/3 141/2/3
f 143/2/3 140/2/3 142/2/3
f 144/2/3 140/2/3 143/2/3
f 145/2/3 84/2/3 76/2/3
f 145/2/3 131/2/3 84/2/3
f 145/2/3 141/2/3 131/2/3
f 146/2/3 141/2/3 145/2/3
f 147/1/3 142/1/3 141/1/3
f 147/2/3 141/2/3 146/2/3
f 148/2/3 143/2/3 142/2/3
f 148/1/3 142/1/3 147/1/3
f 149/1/3 144/1/3 143/1/3
f 149/2/3 143/2/3 148/2/3
f 150/1/3 144/1/3 149/1/3
f 151/2/3 145/2/3 76/2/3
f 152/1/3 146/1/3 145/1/3
f 152/2/3 145/2/3 151/2/3
f 153/2/3 148/2/3 147/2/3
f 153/1/3 146/1/3 152/1/3
f 153/2/3 147/2/3 146/2/3
f 153/2/3 150/2/3 149/2/3
f 153/2/3 149/2/3 148/2/3
f 154/2/3 150/2/3 153/2/3
f 155/2/3 150/2/3 154/2/3
f 156/1/3 144/1/3 150/1/3
f 156/2/3 150/2/3 155/2/3
f 157/1/3 144/1/3 156/1/3
f 158/4/4 159/4/4 160/4/4
f 160/4/4 159/4/4 161/4/4
f 161/4/4 159/4/4 162/4/4
f 162/4/4 159/4/4 163/4/4
f 163/4/4 159/4/4 164/4/4
f 160/2/4 161/2/4 165/2/4
f 161/1/4 162/1/4 165/1/4
f 162/2/4 163/2/4 166/2/4
f 165/1/4 162/1/4 166/1/4
f 163/1/4 164/1/4 167/1/4
f 166/2/4 163/2/4 167/2/4
f 167/1/4 164/1/4 168/1/4
f 165/2/4 166/2/4 169/2/4
f 166/2/4 167/2/4 169/2/4
f 167/2/4 168/2/4 169/2/4
f 169/2/4 168/2/4 170/2/4
f 168/1/4 164/1/4 171/1/4
f 170/2/4 168/2/4 171/2/4
f 164/4/4 159/4/4 172/4/4
f 171/1/4 164/1/4 172/1/4
f 169/1/4 170/1/4 173/1/4
f 165/2/4 169/2/4 173/2/4
f 173/1/4 170/1/4 174/1/4
f 174/1/4 170/1/4 175/1/4
f 170/2/4 171/2/4 176/2/4
f 175/1/4 170/1/4 176/1/4
f 171/2/4 172/2/4 176/2/4
f 176/2/4 172/2/4 177/2/4
f 172/4/4 159/4/4 178/4/4
f 177/2/4 172/2/4 178/2/4
f 174/1/4 175/1/4 179/1/4
f 173/2/4 174/2/4 179/2/4
f 176/2/4 177/2/4 180/2/4
f 179/1/4 175/1/4 180/1/4
f 175/2/4 176/2/4 180/2/4
f 177/1/4 178/1/4 181/1/4
f 180/2/4 177/2/4 181/2/4
f 178/4/4 159/4/4 182/4/4
f 181/1/4 178/1/4 182/1/4
f 180/2/4 181/2/4 183/2/4
f 179/2/4 180/2/4 183/2/4
f 181/2/4 182/2/4 183/2/4
f 182/4/4 159/4/4 184/4/4
f 183/2/4 182/2/4 184/2/4
f 179/2/4 183/2/4 185/2/4
f 173/2/4 179/2/4 185/2/4
f 165/2/4 173/2/4 185/2/4
f 185/2/4 183/2/4 186/2/4
f 183/1/4 184/1/4 187/1/4
f 186/2/4 183/2/4 187/2/4
f 184/4/4 159/4/4 188/4/4
f 187/1/4 184/1/4 188/1/4
f 185/1/4 186/1/4 189/1/4
f 165/2/4 185/2/4 189/2/4
f 189/1/4 186/1/4 190/1/4
f 186/2/4 187/2/4 191/2/4
f 187/2/4 188/2/4 191/2/4
f 188/4/4 159/4/4 192/4/4
f 191/2/4 188/2/4 192/2/4
f 190/1/4 186/1/4 193/1/4
f 186/2/4 191/2/4 193/2/4
f 193/2/4 191/2/4 194/2/4
f 191/1/4 192/1/4 195/1/4
f 194/2/4 191/2/4 195/2/4
f 195/1/4 192/1/4 196/1/4
f 193/1/4 194/1/4 197/1/4
f 189/2/4 190/2/4 197/2/4
f 190/1/4 193/1/4 197/1/4
f 195/2/4 196/2/4 198/2/4
f 197/1/4 194/1/4 198/1/4
f 194/2/4 195/2/4 198/2/4
f 196/1/4 192/1/4 199/1/4
f 198/2/4 196/2/4 199/2/4
f 192/4/4 159/4/4 200/4/4
f 199/1/4 192/1/4 200/1/4
f 198/2/4 199/2/4 201/2/4
f 197/2/4 198/2/4 201/2/4
f 199/2/4 200/2/4 201/2/4
f 189/2/4 197/2/4 201/2/4
f 201/2/4 200/2/4 202/2/4
f 202/2/4 200/2/4 203/2/4
f 200/4/4 159/4/4 204/4/4
f 203/2/4 200/2/4 204/2/4
f 165/2/4 189/2/4 205/2/4
f 189/2/4 201/2/4 205/2/4
f 201/1/4 202/1/4 206/1/4
f 205/2/4 201/2/4 206/2/4
f 206/1/4 202/1/4 207/1/4
f 202/2/4 203/2/4 208/2/4
f 207/1/4 202/1/4 208/1/4
f 203/1/4 204/1/4 209/1/4
f 208/2/4 203/2/4 209/2/4
f 209/1/4 204/1/4 210/1/4
f 206/1/4 207/1/4 211/1/4
f 165/2/4 205/2/4 211/2/4
f 205/1/4 206/1/4 211/1/4
f 211/1/4 207/1/4 212/1/4
f 210/1/4 204/1/4 213/1/4
f 207/2/4 208/2/4 213/2/4
f 209/2/4 210/2/4 213/2/4
f 208/2/4 209/2/4 213/2/4
f 204/4/4 159/4/4 214/4/4
f 213/1/4 204/1/4 214/1/4
f 212/1/4 207/1/4 215/1/4
f 211/2/4 212/2/4 215/2/4
f 207/2/4 213/2/4 216/2/4
f 215/1/4 207/1/4 216/1/4
f 213/2/4 214/2/4 216/2/4
f 216/2/4 214/2/4 217/2/4
f 214/4/4 159/4/4 218/4/4
f 217/2/4 214/2/4 218/2/4
f 216/2/4 217/2/4 219/2/4
f 215/2/4 216/2/4 219/2/4
f 217/1/4 218/1/4 219/1/4
f 218/4/4 159/4/4 220/4/4
f 219/1/4 218/1/4 220/1/4
f 215/2/4 219/2/4 221/2/4
f 211/2/4 215/2/4 221/2/4
f 219/2/4 220/2/4 221/2/4
f 221/2/4 220/2/4 222/2/4
f 222/2/4 220/2/4 223/2/4
f 220/4/4 159/4/4 224/4/4
f 223/2/4 220/2/4 224/2/4
f 165/2/4 211/2/4 225/2/4
f 160/2/4 165/2/4 225/2/4
f 211/2/4 221/2/4 225/2/4
f 225/2/4 221/2/4 226/2/4
f 221/1/4 222/1/4 227/1/4
f 226/2/4 221/2/4 227/2/4
f 222/2/4 223/2/4 228/2/4
f 227/1/4 222/1/4 228/1/4
f 223/1/4 224/1/4 229/1/4
f 228/2/4 223/2/4 229/2/4
f 229/1/4 224/1/4 230/1/4
f 158/4/4 160/4/4 231/4/4
f 160/2/4 225/2/4 231/2/4
f 225/1/4 226/1/4 232/1/4
f 231/2/4 225/2/4 232/2/4
f 226/2/4 227/2/4 233/2/4
f 232/1/4 226/1/4 233/1/4
f 227/2/4 228/2/4 233/2/4
f 228/2/4 229/2/4 233/2/4
f 229/2/4 230/2/4 233/2/4
f 230/1/4 224/1/4 234/1/4
f 233/2/4 230/2/4 234/2/4
f 224/4/4 159/4/4 235/4/4
f 234/1/4 224/1/4 235/1/4
f 232/4/4 233/4/4 236/4/4
f 231/4/4 232/4/4 236/4/4
f 234/4/4 235/4/4 236/4/4
f 158/4/4 231/4/4 236/4/4
f 233/4/4 234/4/4 236/4/4
f 235/4/4 159/4/4 237/4/4
f 236/4/4 235/4/4 237/4/4
f 240/4/5 239/4/5 238/4/5
f 241/4/5 239/4/5 240/4/5
f 248/3/5 243/3/5 242/3/5
f 249/3/5 243/3/5 248/3/5
f 250/4/5 244/4/5 243/4/5
f 250/3/5 243/3/5 249/3/5
f 251/4/5 244/4/5 250/4/5
f 252/3/5 245/3/5 244/3/5
f 252/4/5 244/4/5 251/4/5
f 253/3/5 245/3/5 252/3/5
f 254/3/5 245/3/5 253/3/5
f 255/3/5 245/3/5 254/3/5
f 256/3/5 245/3/5 255/3/5
f 257/4/5 246/4/5 245/4/5
f 257/3/5 245/3/5 256/3/5
f 258/4/5 246/4/5 257/4/5
f 259/4/5 246/4/5 258/4/5
f 260/4/5 246/4/5 259/4/5
f 261/3/5 247/3/5 246/3/5
f 261/4/5 246/4/5 260/4/5
f 262/3/5 247/3/5 261/3/5
f 263/4/6 264/4/6 265/4/6
f 265/4/6 264/4/6 266/4/6
f 267/3/6 268/3/6 273/3/6
f 268/4/6 269/4/6 274/4/6
f 273/3/6 268/3/6 274/3/6
f 269/3/6 270/3/6 275/3/6
f 274/4/6 269/4/6 275/4/6
f 270/4/6 271/4/6 276/4/6
f 275/3/6 270/3/6 276/3/6
f 271/3/6 272/3/6 277/3/6
f 276/4/6 271/4/6 277/4/6
f 277/3/6 272/3/6 278/3/6
f 275/4/6 276/4/6 279/4/6
f 273/4/6 274/4/6 279/4/6
f 277/4/6 278/4/6 279/4/6
f 276/4/6 277/4/6 279/4/6
f 274/4/6 275/4/6 279/4/6
f 279/4/6 278/4/6 280/4/6
