# MagicaVoxel @ Ephtracy

# group
o 

# material
mtllib NoodleCup2.mtl
usemtl palette

# normals
vn -1 0 0
vn 1 0 0
vn 0 0 1
vn 0 0 -1
vn 0 -1 0
vn 0 1 0

# texcoords
vt 0.689453 0.5
vt 0.751953 0.5
vt 0.783203 0.5
vt 0.787109 0.5
vt 0.814453 0.5
vt 0.876953 0.5
vt 0.880859 0.5
vt 0.970703 0.5
vt 0.974609 0.5

# verts
v -1 0 0.7
v -1 0 0.6
v -1 0.1 0.7
v -1 0.1 0.6
v -1 0.2 0.7
v -1 0.2 0.6
v -1 0.3 0.7
v -1 0.3 0.6
v -0.9 0 0.8
v -0.9 0 0.7
v -0.9 0 0.6
v -0.9 0 0.5
v -0.9 0.1 0.8
v -0.9 0.1 0.7
v -0.9 0.1 0.6
v -0.9 0.1 0.5
v -0.9 0.2 0.8
v -0.9 0.2 0.7
v -0.9 0.2 0.6
v -0.9 0.3 0.8
v -0.9 0.3 0.7
v -0.9 0.3 0.6
v -0.9 0.3 0.5
v -0.7 0 1
v -0.7 0 0.9
v -0.7 0.1 1
v -0.7 0.1 0.9
v -0.7 0.2 1
v -0.7 0.2 0.9
v -0.6 0 0.9
v -0.6 0 0.8
v -0.6 0.1 0.9
v -0.6 0.1 0.8
v -0.6 0.2 0.9
v -0.6 0.2 0.8
v -0.4 0 0.9
v -0.4 0 0.8
v -0.4 0.1 0.9
v -0.4 0.1 0.8
v -0.3 0 0.7
v -0.3 0 0.6
v -0.3 0.1 0.7
v -0.3 0.1 0.6
v -0.1 0 1
v -0.1 0 0.9
v -0.1 0.1 1
v -0.1 0.1 0.9
v 0 0 0.9
v 0 0 0.8
v 0 0.1 0.9
v 0 0.1 0.8
v 0 0.2 0.9
v 0 0.2 0.8
v 0.1 0 1
v 0.1 0 0.9
v 0.1 0 0.8
v 0.1 0 0.7
v 0.1 0.1 1
v 0.1 0.1 0.9
v 0.1 0.1 0.8
v 0.1 0.1 0.7
v 0.1 0.2 1
v 0.1 0.2 0.9
v 0.1 0.2 0.8
v 0.1 0.2 0.7
v 0.1 0.3 1
v 0.1 0.3 0.8
v 0.4 0 1
v 0.4 0 0.9
v 0.4 0.1 1
v 0.4 0.1 0.9
v 0.6 0 0.9
v 0.6 0 0.8
v 0.6 0.1 0.9
v 0.6 0.1 0.8
v 0.7 0.1 1
v 0.7 0.1 0.9
v 0.7 0.2 1
v 0.7 0.2 0.9
v 0.8 0 0.7
v 0.8 0 0.6
v 0.8 0.1 0.9
v 0.8 0.1 0.8
v 0.8 0.1 0.7
v 0.8 0.1 0.6
v 0.8 0.2 0.9
v 0.8 0.2 0.8
v -0.8 0 0.8
v -0.8 0 0.7
v -0.8 0.1 0.8
v -0.8 0.1 0.7
v -0.8 0.1 0.6
v -0.8 0.1 0.5
v -0.8 0.2 0.8
v -0.8 0.2 0.7
v -0.8 0.2 0.6
v -0.8 0.3 0.8
v -0.8 0.3 0.7
v -0.8 0.3 0.6
v -0.8 0.3 0.5
v -0.7 0 0.7
v -0.7 0 0.6
v -0.7 0 0.5
v -0.7 0.1 0.7
v -0.7 0.1 0.6
v -0.7 0.1 0.5
v -0.7 0.2 0.7
v -0.7 0.2 0.6
v -0.7 0.3 0.7
v -0.7 0.3 0.6
v -0.6 0 1
v -0.6 0 0.9
v -0.6 0.1 1
v -0.6 0.1 0.9
v -0.6 0.2 1
v -0.6 0.2 0.9
v -0.5 0 0.9
v -0.5 0 0.8
v -0.5 0.1 0.9
v -0.5 0.1 0.8
v -0.5 0.2 0.9
v -0.5 0.2 0.8
v -0.3 0 0.9
v -0.3 0 0.8
v -0.3 0.1 0.9
v -0.3 0.1 0.8
v -0.2 0 0.7
v -0.2 0 0.6
v -0.2 0.1 0.7
v -0.2 0.1 0.6
v 0 0 1
v 0 0 0.9
v 0 0.1 1
v 0 0.1 0.9
v 0.2 0 1
v 0.2 0 0.9
v 0.2 0 0.8
v 0.2 0 0.7
v 0.2 0.1 1
v 0.2 0.1 0.9
v 0.2 0.1 0.8
v 0.2 0.1 0.7
v 0.2 0.2 1
v 0.2 0.2 0.9
v 0.2 0.2 0.8
v 0.2 0.2 0.7
v 0.2 0.3 1
v 0.2 0.3 0.8
v 0.3 0 0.9
v 0.3 0 0.8
v 0.3 0.1 0.9
v 0.3 0.1 0.8
v 0.3 0.2 0.9
v 0.3 0.2 0.8
v 0.9 0 1
v 0.9 0 0.8
v 0.9 0 0.7
v 0.9 0 0.6
v 0.9 0.1 1
v 0.9 0.1 0.8
v 0.9 0.1 0.7
v 0.9 0.1 0.6
v 0.9 0.2 1
v 0.9 0.2 0.8
v -0.7 0 1
v -0.7 0.1 1
v -0.7 0.2 1
v -0.6 0 1
v -0.6 0.1 1
v -0.6 0.2 1
v -0.1 0 1
v -0.1 0.1 1
v 0 0 1
v 0 0.1 1
v 0.1 0 1
v 0.1 0.1 1
v 0.1 0.2 1
v 0.1 0.3 1
v 0.2 0 1
v 0.2 0.1 1
v 0.2 0.2 1
v 0.2 0.3 1
v 0.4 0 1
v 0.4 0.1 1
v 0.5 0 1
v 0.5 0.1 1
v 0.7 0 1
v 0.7 0.1 1
v 0.7 0.2 1
v 0.9 0 1
v 0.9 0.1 1
v 0.9 0.2 1
v -0.6 0 0.9
v -0.6 0.1 0.9
v -0.6 0.2 0.9
v -0.5 0 0.9
v -0.5 0.1 0.9
v -0.5 0.2 0.9
v -0.4 0 0.9
v -0.4 0.1 0.9
v -0.3 0 0.9
v -0.3 0.1 0.9
v 0 0 0.9
v 0 0.1 0.9
v 0 0.2 0.9
v 0.1 0 0.9
v 0.1 0.1 0.9
v 0.1 0.2 0.9
v 0.2 0 0.9
v 0.2 0.1 0.9
v 0.2 0.2 0.9
v 0.3 0 0.9
v 0.3 0.1 0.9
v 0.3 0.2 0.9
v -0.9 0 0.8
v -0.9 0.1 0.8
v -0.9 0.2 0.8
v -0.9 0.3 0.8
v -0.8 0 0.8
v -0.8 0.1 0.8
v -0.8 0.2 0.8
v -0.8 0.3 0.8
v -1 0 0.7
v -1 0.1 0.7
v -1 0.2 0.7
v -1 0.3 0.7
v -0.9 0 0.7
v -0.9 0.1 0.7
v -0.9 0.2 0.7
v -0.9 0.3 0.7
v -0.8 0 0.7
v -0.8 0.1 0.7
v -0.8 0.2 0.7
v -0.8 0.3 0.7
v -0.7 0 0.7
v -0.7 0.1 0.7
v -0.7 0.2 0.7
v -0.7 0.3 0.7
v -0.3 0 0.7
v -0.3 0.1 0.7
v -0.2 0 0.7
v -0.2 0.1 0.7
v 0.8 0 0.7
v 0.8 0.1 0.7
v 0.9 0 0.7
v 0.9 0.1 0.7
v -0.7 0 0.9
v -0.7 0.1 0.9
v -0.7 0.2 0.9
v -0.6 0 0.9
v -0.6 0.1 0.9
v -0.6 0.2 0.9
v -0.1 0 0.9
v -0.1 0.1 0.9
v 0 0 0.9
v 0 0.1 0.9
v 0.4 0 0.9
v 0.4 0.1 0.9
v 0.5 0 0.9
v 0.5 0.1 0.9
v 0.6 0 0.9
v 0.6 0.1 0.9
v 0.7 0.1 0.9
v 0.7 0.2 0.9
v 0.8 0.1 0.9
v 0.8 0.2 0.9
v -0.6 0 0.8
v -0.6 0.1 0.8
v -0.6 0.2 0.8
v -0.5 0 0.8
v -0.5 0.1 0.8
v -0.5 0.2 0.8
v -0.4 0 0.8
v -0.4 0.1 0.8
v -0.3 0 0.8
v -0.3 0.1 0.8
v 0 0 0.8
v 0 0.1 0.8
v 0 0.2 0.8
v 0.1 0 0.8
v 0.1 0.1 0.8
v 0.1 0.2 0.8
v 0.1 0.3 0.8
v 0.2 0 0.8
v 0.2 0.1 0.8
v 0.2 0.2 0.8
v 0.2 0.3 0.8
v 0.3 0 0.8
v 0.3 0.1 0.8
v 0.3 0.2 0.8
v 0.6 0 0.8
v 0.6 0.1 0.8
v 0.7 0 0.8
v 0.7 0.1 0.8
v 0.8 0.1 0.8
v 0.8 0.2 0.8
v 0.9 0 0.8
v 0.9 0.1 0.8
v 0.9 0.2 0.8
v 0.1 0 0.7
v 0.1 0.1 0.7
v 0.1 0.2 0.7
v 0.2 0 0.7
v 0.2 0.1 0.7
v 0.2 0.2 0.7
v -1 0 0.6
v -1 0.1 0.6
v -1 0.2 0.6
v -1 0.3 0.6
v -0.9 0 0.6
v -0.9 0.1 0.6
v -0.9 0.2 0.6
v -0.9 0.3 0.6
v -0.8 0.1 0.6
v -0.8 0.2 0.6
v -0.8 0.3 0.6
v -0.7 0.1 0.6
v -0.7 0.2 0.6
v -0.7 0.3 0.6
v -0.3 0 0.6
v -0.3 0.1 0.6
v -0.2 0 0.6
v -0.2 0.1 0.6
v 0.8 0 0.6
v 0.8 0.1 0.6
v 0.9 0 0.6
v 0.9 0.1 0.6
v -0.9 0 0.5
v -0.9 0.1 0.5
v -0.9 0.3 0.5
v -0.8 0 0.5
v -0.8 0.1 0.5
v -0.8 0.3 0.5
v -0.7 0 0.5
v -0.7 0.1 0.5
v -0.7 0 1
v -0.6 0 1
v -0.1 0 1
v 0 0 1
v 0.1 0 1
v 0.2 0 1
v 0.4 0 1
v 0.5 0 1
v 0.7 0 1
v 0.9 0 1
v -0.7 0 0.9
v -0.6 0 0.9
v -0.5 0 0.9
v -0.4 0 0.9
v -0.3 0 0.9
v -0.1 0 0.9
v 0 0 0.9
v 0.1 0 0.9
v 0.2 0 0.9
v 0.3 0 0.9
v 0.4 0 0.9
v 0.5 0 0.9
v 0.6 0 0.9
v -0.9 0 0.8
v -0.8 0 0.8
v -0.6 0 0.8
v -0.5 0 0.8
v -0.4 0 0.8
v -0.3 0 0.8
v 0 0 0.8
v 0.1 0 0.8
v 0.2 0 0.8
v 0.3 0 0.8
v 0.6 0 0.8
v 0.7 0 0.8
v 0.9 0 0.8
v -1 0 0.7
v -0.9 0 0.7
v -0.8 0 0.7
v -0.7 0 0.7
v -0.3 0 0.7
v -0.2 0 0.7
v 0.1 0 0.7
v 0.2 0 0.7
v 0.8 0 0.7
v 0.9 0 0.7
v -1 0 0.6
v -0.9 0 0.6
v -0.8 0 0.6
v -0.7 0 0.6
v -0.3 0 0.6
v -0.2 0 0.6
v 0.8 0 0.6
v 0.9 0 0.6
v -0.9 0 0.5
v -0.8 0 0.5
v -0.7 0 0.5
v -0.1 0.1 1
v 0 0.1 1
v 0.4 0.1 1
v 0.5 0.1 1
v 0.7 0.1 1
v -0.4 0.1 0.9
v -0.3 0.1 0.9
v -0.1 0.1 0.9
v 0 0.1 0.9
v 0.4 0.1 0.9
v 0.5 0.1 0.9
v 0.6 0.1 0.9
v 0.7 0.1 0.9
v 0.8 0.1 0.9
v -0.4 0.1 0.8
v -0.3 0.1 0.8
v 0.6 0.1 0.8
v 0.7 0.1 0.8
v 0.8 0.1 0.8
v -0.3 0.1 0.7
v -0.2 0.1 0.7
v 0.8 0.1 0.7
v 0.9 0.1 0.7
v -0.8 0.1 0.6
v -0.7 0.1 0.6
v -0.3 0.1 0.6
v -0.2 0.1 0.6
v 0.8 0.1 0.6
v 0.9 0.1 0.6
v -0.8 0.1 0.5
v -0.7 0.1 0.5
v -0.7 0.2 1
v -0.6 0.2 1
v 0.7 0.2 1
v 0.9 0.2 1
v -0.7 0.2 0.9
v -0.6 0.2 0.9
v -0.5 0.2 0.9
v 0 0.2 0.9
v 0.1 0.2 0.9
v 0.2 0.2 0.9
v 0.3 0.2 0.9
v 0.7 0.2 0.9
v 0.8 0.2 0.9
v -0.6 0.2 0.8
v -0.5 0.2 0.8
v 0 0.2 0.8
v 0.1 0.2 0.8
v 0.2 0.2 0.8
v 0.3 0.2 0.8
v 0.8 0.2 0.8
v 0.9 0.2 0.8
v 0.1 0.2 0.7
v 0.2 0.2 0.7
v 0.1 0.3 1
v 0.2 0.3 1
v -0.9 0.3 0.8
v -0.8 0.3 0.8
v 0.1 0.3 0.8
v 0.2 0.3 0.8
v -1 0.3 0.7
v -0.9 0.3 0.7
v -0.8 0.3 0.7
v -0.7 0.3 0.7
v -1 0.3 0.6
v -0.9 0.3 0.6
v -0.8 0.3 0.6
v -0.7 0.3 0.6
v -0.9 0.3 0.5
v -0.8 0.3 0.5

# faces
f 3/3/1 2/3/1 1/3/1
f 4/3/1 2/3/1 3/3/1
f 5/4/1 4/4/1 3/4/1
f 6/4/1 4/4/1 5/4/1
f 7/2/1 6/2/1 5/2/1
f 8/2/1 6/2/1 7/2/1
f 13/3/1 10/3/1 9/3/1
f 14/3/1 10/3/1 13/3/1
f 15/3/1 12/3/1 11/3/1
f 16/3/1 12/3/1 15/3/1
f 17/4/1 14/4/1 13/4/1
f 18/4/1 14/4/1 17/4/1
f 19/2/1 16/2/1 15/2/1
f 20/2/1 18/2/1 17/2/1
f 21/2/1 18/2/1 20/2/1
f 22/2/1 16/2/1 19/2/1
f 23/2/1 16/2/1 22/2/1
f 26/3/1 25/3/1 24/3/1
f 27/3/1 25/3/1 26/3/1
f 28/8/1 27/8/1 26/8/1
f 29/8/1 27/8/1 28/8/1
f 32/3/1 31/3/1 30/3/1
f 33/3/1 31/3/1 32/3/1
f 34/2/1 33/2/1 32/2/1
f 35/2/1 33/2/1 34/2/1
f 38/4/1 37/4/1 36/4/1
f 39/4/1 37/4/1 38/4/1
f 42/2/1 41/2/1 40/2/1
f 43/2/1 41/2/1 42/2/1
f 46/2/1 45/2/1 44/2/1
f 47/2/1 45/2/1 46/2/1
f 50/5/1 49/5/1 48/5/1
f 51/5/1 49/5/1 50/5/1
f 52/8/1 51/8/1 50/8/1
f 53/8/1 51/8/1 52/8/1
f 58/5/1 55/5/1 54/5/1
f 59/5/1 55/5/1 58/5/1
f 60/5/1 57/5/1 56/5/1
f 61/5/1 57/5/1 60/5/1
f 62/9/1 59/9/1 58/9/1
f 63/9/1 59/9/1 62/9/1
f 64/9/1 61/9/1 60/9/1
f 65/9/1 61/9/1 64/9/1
f 66/8/1 63/8/1 62/8/1
f 66/8/1 64/8/1 63/8/1
f 67/8/1 64/8/1 66/8/1
f 70/1/1 69/1/1 68/1/1
f 71/1/1 69/1/1 70/1/1
f 74/2/1 73/2/1 72/2/1
f 75/2/1 73/2/1 74/2/1
f 78/7/1 77/7/1 76/7/1
f 79/7/1 77/7/1 78/7/1
f 84/4/1 81/4/1 80/4/1
f 85/4/1 81/4/1 84/4/1
f 86/7/1 83/7/1 82/7/1
f 87/7/1 83/7/1 86/7/1
f 88/3/2 89/3/2 90/3/2
f 90/3/2 89/3/2 91/3/2
f 90/4/2 91/4/2 94/4/2
f 94/4/2 91/4/2 95/4/2
f 92/2/2 93/2/2 96/2/2
f 94/2/2 95/2/2 97/2/2
f 97/2/2 95/2/2 98/2/2
f 96/2/2 93/2/2 99/2/2
f 99/2/2 93/2/2 100/2/2
f 101/3/2 102/3/2 104/3/2
f 102/1/2 103/1/2 105/1/2
f 104/3/2 102/3/2 105/3/2
f 105/1/2 103/1/2 106/1/2
f 104/4/2 105/4/2 107/4/2
f 107/4/2 105/4/2 108/4/2
f 107/2/2 108/2/2 109/2/2
f 109/2/2 108/2/2 110/2/2
f 111/3/2 112/3/2 113/3/2
f 113/3/2 112/3/2 114/3/2
f 113/8/2 114/8/2 115/8/2
f 115/8/2 114/8/2 116/8/2
f 117/3/2 118/3/2 119/3/2
f 119/3/2 118/3/2 120/3/2
f 119/2/2 120/2/2 121/2/2
f 121/2/2 120/2/2 122/2/2
f 123/4/2 124/4/2 125/4/2
f 125/4/2 124/4/2 126/4/2
f 127/2/2 128/2/2 129/2/2
f 129/2/2 128/2/2 130/2/2
f 131/2/2 132/2/2 133/2/2
f 133/2/2 132/2/2 134/2/2
f 135/5/2 136/5/2 139/5/2
f 139/5/2 136/5/2 140/5/2
f 137/5/2 138/5/2 141/5/2
f 141/5/2 138/5/2 142/5/2
f 139/9/2 140/9/2 143/9/2
f 143/9/2 140/9/2 144/9/2
f 141/9/2 142/9/2 145/9/2
f 145/9/2 142/9/2 146/9/2
f 143/8/2 144/8/2 147/8/2
f 144/8/2 145/8/2 147/8/2
f 147/8/2 145/8/2 148/8/2
f 149/5/2 150/5/2 151/5/2
f 151/5/2 150/5/2 152/5/2
f 151/9/2 152/9/2 153/9/2
f 153/9/2 152/9/2 154/9/2
f 155/6/2 156/6/2 159/6/2
f 159/6/2 156/6/2 160/6/2
f 157/4/2 158/4/2 161/4/2
f 161/4/2 158/4/2 162/4/2
f 159/7/2 160/7/2 163/7/2
f 163/7/2 160/7/2 164/7/2
f 168/3/3 166/3/3 165/3/3
f 169/8/3 167/8/3 166/8/3
f 169/3/3 166/3/3 168/3/3
f 170/8/3 167/8/3 169/8/3
f 173/2/3 172/2/3 171/2/3
f 174/2/3 172/2/3 173/2/3
f 179/5/3 176/5/3 175/5/3
f 180/9/3 177/9/3 176/9/3
f 180/5/3 176/5/3 179/5/3
f 181/8/3 178/8/3 177/8/3
f 181/9/3 177/9/3 180/9/3
f 182/8/3 178/8/3 181/8/3
f 185/1/3 184/1/3 183/1/3
f 186/1/3 184/1/3 185/1/3
f 187/2/3 186/2/3 185/2/3
f 188/2/3 186/2/3 187/2/3
f 190/6/3 188/6/3 187/6/3
f 191/7/3 189/7/3 188/7/3
f 191/6/3 188/6/3 190/6/3
f 192/7/3 189/7/3 191/7/3
f 196/3/3 194/3/3 193/3/3
f 197/2/3 195/2/3 194/2/3
f 197/3/3 194/3/3 196/3/3
f 198/2/3 195/2/3 197/2/3
f 201/4/3 200/4/3 199/4/3
f 202/4/3 200/4/3 201/4/3
f 206/5/3 204/5/3 203/5/3
f 207/8/3 205/8/3 204/8/3
f 207/5/3 204/5/3 206/5/3
f 208/8/3 205/8/3 207/8/3
f 212/5/3 210/5/3 209/5/3
f 213/9/3 211/9/3 210/9/3
f 213/5/3 210/5/3 212/5/3
f 214/9/3 211/9/3 213/9/3
f 219/3/3 216/3/3 215/3/3
f 220/4/3 217/4/3 216/4/3
f 220/3/3 216/3/3 219/3/3
f 221/2/3 218/2/3 217/2/3
f 221/4/3 217/4/3 220/4/3
f 222/2/3 218/2/3 221/2/3
f 227/3/3 224/3/3 223/3/3
f 228/4/3 225/4/3 224/4/3
f 228/3/3 224/3/3 227/3/3
f 229/2/3 226/2/3 225/2/3
f 229/4/3 225/4/3 228/4/3
f 230/2/3 226/2/3 229/2/3
f 235/3/3 232/3/3 231/3/3
f 236/4/3 233/4/3 232/4/3
f 236/3/3 232/3/3 235/3/3
f 237/2/3 234/2/3 233/2/3
f 237/4/3 233/4/3 236/4/3
f 238/2/3 234/2/3 237/2/3
f 241/2/3 240/2/3 239/2/3
f 242/2/3 240/2/3 241/2/3
f 245/4/3 244/4/3 243/4/3
f 246/4/3 244/4/3 245/4/3
f 247/3/4 248/3/4 250/3/4
f 248/8/4 249/8/4 251/8/4
f 250/3/4 248/3/4 251/3/4
f 251/8/4 249/8/4 252/8/4
f 253/2/4 254/2/4 255/2/4
f 255/2/4 254/2/4 256/2/4
f 257/1/4 258/1/4 259/1/4
f 259/1/4 258/1/4 260/1/4
f 259/2/4 260/2/4 261/2/4
f 261/2/4 260/2/4 262/2/4
f 263/7/4 264/7/4 265/7/4
f 265/7/4 264/7/4 266/7/4
f 267/3/4 268/3/4 270/3/4
f 268/2/4 269/2/4 271/2/4
f 270/3/4 268/3/4 271/3/4
f 271/2/4 269/2/4 272/2/4
f 273/4/4 274/4/4 275/4/4
f 275/4/4 274/4/4 276/4/4
f 277/5/4 278/5/4 280/5/4
f 278/8/4 279/8/4 281/8/4
f 280/5/4 278/5/4 281/5/4
f 281/8/4 279/8/4 282/8/4
f 282/8/4 283/8/4 286/8/4
f 286/8/4 283/8/4 287/8/4
f 284/5/4 285/5/4 288/5/4
f 285/9/4 286/9/4 289/9/4
f 288/5/4 285/5/4 289/5/4
f 289/9/4 286/9/4 290/9/4
f 291/2/4 292/2/4 293/2/4
f 293/2/4 292/2/4 294/2/4
f 293/6/4 294/6/4 295/6/4
f 293/6/4 295/6/4 297/6/4
f 295/7/4 296/7/4 298/7/4
f 297/6/4 295/6/4 298/6/4
f 298/7/4 296/7/4 299/7/4
f 300/5/4 301/5/4 303/5/4
f 301/9/4 302/9/4 304/9/4
f 303/5/4 301/5/4 304/5/4
f 304/9/4 302/9/4 305/9/4
f 306/3/4 307/3/4 310/3/4
f 307/4/4 308/4/4 311/4/4
f 310/3/4 307/3/4 311/3/4
f 308/2/4 309/2/4 312/2/4
f 311/4/4 308/4/4 312/4/4
f 312/2/4 309/2/4 313/2/4
f 314/4/4 315/4/4 317/4/4
f 315/2/4 316/2/4 318/2/4
f 317/4/4 315/4/4 318/4/4
f 318/2/4 316/2/4 319/2/4
f 320/2/4 321/2/4 322/2/4
f 322/2/4 321/2/4 323/2/4
f 324/4/4 325/4/4 326/4/4
f 326/4/4 325/4/4 327/4/4
f 328/3/4 329/3/4 331/3/4
f 329/2/4 330/2/4 332/2/4
f 331/3/4 329/3/4 332/3/4
f 332/2/4 330/2/4 333/2/4
f 331/1/4 332/1/4 334/1/4
f 334/1/4 332/1/4 335/1/4
f 346/3/5 337/3/5 336/3/5
f 347/3/5 337/3/5 346/3/5
f 351/2/5 339/2/5 338/2/5
f 352/2/5 339/2/5 351/2/5
f 353/5/5 341/5/5 340/5/5
f 354/5/5 341/5/5 353/5/5
f 356/1/5 343/1/5 342/1/5
f 357/2/5 344/2/5 343/2/5
f 357/1/5 343/1/5 356/1/5
f 358/2/5 344/2/5 357/2/5
f 361/3/5 348/3/5 347/3/5
f 362/3/5 348/3/5 361/3/5
f 363/4/5 350/4/5 349/4/5
f 364/4/5 350/4/5 363/4/5
f 365/5/5 355/5/5 354/5/5
f 365/5/5 354/5/5 353/5/5
f 365/5/5 353/5/5 352/5/5
f 366/5/5 355/5/5 365/5/5
f 367/5/5 355/5/5 366/5/5
f 368/5/5 355/5/5 367/5/5
f 369/2/5 344/2/5 358/2/5
f 370/6/5 345/6/5 344/6/5
f 370/2/5 344/2/5 369/2/5
f 371/6/5 345/6/5 370/6/5
f 373/3/5 360/3/5 359/3/5
f 374/3/5 360/3/5 373/3/5
f 378/5/5 367/5/5 366/5/5
f 379/5/5 367/5/5 378/5/5
f 382/3/5 373/3/5 372/3/5
f 382/3/5 374/3/5 373/3/5
f 382/3/5 375/3/5 374/3/5
f 383/3/5 375/3/5 382/3/5
f 384/3/5 375/3/5 383/3/5
f 385/3/5 375/3/5 384/3/5
f 386/2/5 377/2/5 376/2/5
f 387/2/5 377/2/5 386/2/5
f 388/4/5 381/4/5 380/4/5
f 389/4/5 381/4/5 388/4/5
f 390/3/5 384/3/5 383/3/5
f 391/1/5 385/1/5 384/1/5
f 391/3/5 384/3/5 390/3/5
f 392/1/5 385/1/5 391/1/5
f 393/2/6 394/2/6 400/2/6
f 400/2/6 394/2/6 401/2/6
f 395/1/6 396/1/6 402/1/6
f 396/2/6 397/2/6 403/2/6
f 402/1/6 396/1/6 403/1/6
f 403/2/6 397/2/6 404/2/6
f 404/2/6 397/2/6 405/2/6
f 398/4/6 399/4/6 407/4/6
f 407/4/6 399/4/6 408/4/6
f 404/2/6 405/2/6 409/2/6
f 405/6/6 406/6/6 410/6/6
f 409/2/6 405/2/6 410/2/6
f 410/6/6 406/6/6 411/6/6
f 412/2/6 413/2/6 418/2/6
f 418/2/6 413/2/6 419/2/6
f 414/4/6 415/4/6 420/4/6
f 420/4/6 415/4/6 421/4/6
f 416/1/6 417/1/6 422/1/6
f 422/1/6 417/1/6 423/1/6
f 424/8/6 425/8/6 428/8/6
f 428/8/6 425/8/6 429/8/6
f 426/7/6 427/7/6 435/7/6
f 435/7/6 427/7/6 436/7/6
f 429/2/6 430/2/6 437/2/6
f 437/2/6 430/2/6 438/2/6
f 431/8/6 432/8/6 439/8/6
f 439/8/6 432/8/6 440/8/6
f 433/9/6 434/9/6 441/9/6
f 441/9/6 434/9/6 442/9/6
f 436/7/6 427/7/6 443/7/6
f 443/7/6 427/7/6 444/7/6
f 440/9/6 441/9/6 445/9/6
f 445/9/6 441/9/6 446/9/6
f 447/8/6 448/8/6 451/8/6
f 451/8/6 448/8/6 452/8/6
f 449/2/6 450/2/6 454/2/6
f 454/2/6 450/2/6 455/2/6
f 453/2/6 454/2/6 457/2/6
f 455/2/6 456/2/6 457/2/6
f 454/2/6 455/2/6 457/2/6
f 457/2/6 456/2/6 458/2/6
f 458/2/6 456/2/6 459/2/6
f 459/2/6 456/2/6 460/2/6
f 458/2/6 459/2/6 461/2/6
f 461/2/6 459/2/6 462/2/6
